<svg xmlns="http://www.w3.org/2000/svg" width="500" height="500" viewBox="0 0 500 500">
  <defs>
    <style>
      .cls-1 {
        fill: #ecfdfc;
      }

      .cls-2 {
        fill: #2b2b2d;
      }

      .cls-3 {
        fill: #2b2b2b;
      }

      .cls-3, .cls-4 {
        fill-rule: evenodd;
      }

      .cls-4 {
        fill: #42abe7;
      }
    </style>
  </defs>
  <circle id="Outer_circle" data-name="Outer circle" class="cls-1" cx="250" cy="250" r="250"/>
  <circle id="Color_circle" data-name="Color circle" class="cls-2" cx="250" cy="250" r="242"/>
  <circle id="Inner_circle" data-name="Inner circle" class="cls-1" cx="249.5" cy="249.5" r="236.5"/>
  <path id="Shadow" class="cls-3" d="M267.6,63C325.885,86.32,412.584,136.291,435,218.2c-4.481,31.085-11.506,55.793-43.879,71.038q-0.464-1.728-.926-3.457c24.928-67.631-44.875-106.137-92.285-123.463,5.035,35.157,5.523,196.6-8.438,217.145-34.192,50.311-122.65,52.262-153.347,7.752-11.853-14.646-18.857-38.192-10.439-52.775,36.493-36.493,96.435-4.052,139.537-4.052l3.453-.925Q268.137,196.245,267.6,63Z"/>
  <path id="Planned" class="cls-4" d="M254.246,40C317.181,65.154,410.8,119.055,435,207.408c-4.839,33.529-12.424,60.181-47.379,76.625q-0.5-1.865-1-3.729c26.917-72.95-48.456-114.484-99.647-133.174,5.436,37.923,5.963,212.067-9.111,234.224-36.92,54.269-132.435,56.372-165.581,8.363-12.8-15.8-20.36-41.2-11.27-56.927,33.861-58.6,104.127-48.885,150.668-4.371l3.728-1Q254.826,183.726,254.246,40Z"/>
</svg>
