<svg xmlns="http://www.w3.org/2000/svg" width="500" height="500" viewBox="0 0 500 500">
  <defs>
    <style>
      .cls-1 {
        fill: #2b2b2b;
      }

      .cls-1, .cls-2 {
        fill-rule: evenodd;
      }

      .cls-2 {
        fill: #00c6c2;
      }
    </style>
  </defs>
  <path id="Back_fingers" data-name="Back fingers" class="cls-1" d="M154.546,57.854A14.072,14.072,0,0,0,140.862,62.4c-3.2,4.038-1.943,8.534-2.507,14.347-0.8,8.288-4.9,11.585-8.441,19.327-2.6,5.682-4.748,23.541-3.649,41.865,1.016,16.951,3.62,31.644,7.3,43.685,3.314,10.846,4.99,20.416,10.036,29.124,4.779,8.247,12.922,15.8,16.421,20.022,6.722,8.1,15.4,22.587,25.545,30.944,14.333,11.8,30.209,16.422,35.58,17.292-0.369-7.48-11.883-28.348-24.632-49.146-6.465-10.546-29.489-37.195-31.931-40.045-4.118-4.806-15.989-16.74-16.422-31.854-0.255-8.93,1.973-14.767,4.562-18.2,3.773-5.006,7.584-5.948,11.86-10.011,1.068-6.939,2.051-10.56,2.737-19.112a168.985,168.985,0,0,1,1.824-20.933c0.328-2.314,1.067-9.708-.912-16.382a25.234,25.234,0,0,0-5.474-10.011A18.8,18.8,0,0,0,154.546,57.854Zm57.476,28.213a12.83,12.83,0,0,0-6.386-1.82,10.641,10.641,0,0,0-7.3,2.73c-3.25,3.279-2.3,8.307-1.824,15.472,0.486,7.3.035,14.724-.912,17.292a45.656,45.656,0,0,0-2.737,10.011c17.149,8.7,12.75,8.685,20.983,14.562,4.643,3.314,7.462,10.542,9.123,10.011,0.421-6.13.552-7.663,0-17.292-0.665-11.611-.932-24.014.316-29.769a19.007,19.007,0,0,0-.316-10.276C221.784,93.689,218.706,89.63,212.022,86.067Zm39.23,26.393a9.184,9.184,0,0,0-6.387,3.64c-2.09,3.038-1.023,6.406-.912,10.922a34.473,34.473,0,0,1-.912,8.191c-1.082,4.88-3.345,8.793-4.562,12.741a90.462,90.462,0,0,0-1.824,10.011c-0.732,5.019-.687,4.545-0.913,12.742,4.147,7.453,5.155,11.08,10.036,18.2,4.4,6.419,6.634,12.871,10.035,18.2,2.18-5.777,2.629-3.763,3.636-10.336,1.318-8.609.462-16.609,2.75-26.068,0.548-2.265,1.285-4.1,1.825-6.371,1.64-6.888,1.5-12.517,1.825-20.022a123.788,123.788,0,0,0-.5-16.27c-0.319-3.2-1.01-8.175-4.979-11.944C258.064,113.907,254.786,112.021,251.252,112.46Z"/>
  <path id="Earth_and_Notes" data-name="Earth and Notes" class="cls-2" d="M197.936,145.2c0.3,0.722,1.417.54,1.971,1.315s0.036,1.622.6,2.337c0.6,0.76,1.865.683,2.718,0.62,2.56-.188,4.1-0.287,4.386-1,0.319-.8-0.767-1.584-0.752-2.858,0-.377.34-1.334,0.087-1.539-0.457-.371-1.871,1.114-3.33.822a2.691,2.691,0,0,1-1.472-.868c-0.513-.6-0.475-1.558-1.051-1.84a2.044,2.044,0,0,0-1.868.576C198.477,143.328,197.62,144.437,197.936,145.2Zm16.077-1.346c0.116,0.506.77,1.195,2.227,1.682a14.4,14.4,0,0,0,3.111.4c1.687,0.242,2.118,1.142,3.82,1.236,0.91,0.051,1.66-.1,1.967.346,0.215,0.317.09,1.011-.51,2.063a3.533,3.533,0,0,0-.731,1.322c0.185,0.248,1.473-.8,2.816-0.626,1.426,0.183,1.857,1.364,3.35,1.709,0.59,0.136,2.146.335,2.884-.625a2.7,2.7,0,0,0-.665-3.412c-0.893-.7-2.326-0.371-2.408-0.688-0.065-.249.706-0.749,1.465-1.061a1.246,1.246,0,0,0,.825-0.485c0.129-.46-0.729-1.246-1.681-1.585-1.157-.413-1.88.073-2.926-0.159-1.213-.271-1.658-1.12-2.7-1.6-1.193-.549-1.95-0.283-3.205-0.673a13.7,13.7,0,0,0-2.974-1.056,4.523,4.523,0,0,0-3.373.774C214.952,141.69,213.753,142.73,214.013,143.856Zm7.307-15.368c-0.545.851-.281,1.832-0.461,3.2a3.288,3.288,0,0,0,.216,2.309,2.513,2.513,0,0,0,1,.894c1.518,0.81,3.012.161,4.762,0.216a13.146,13.146,0,0,1,4.763,1.917,36.159,36.159,0,0,1,3.572,2.845,29.428,29.428,0,0,0,4.417,2.6c2.661,1.32,5,1.561,7.557,2.585,0.521,0.208,1.634.66,2.095,0.21,0.553-.54-0.132-2.1-0.469-2.764a11.321,11.321,0,0,0-1.708-2.332c-1.136-1.351-1.987-2.659-1.6-3.231,0.3-.44,1.279-0.215,1.4-0.55,0.2-.577-2.555-1.689-2.549-3.18,0-.852,1.057-1.576.844-1.942-0.24-.413-1.676.261-2.393-0.344-0.623-.525-0.192-1.425-0.8-1.931-0.718-.6-1.99.2-3.122-0.227a5.038,5.038,0,0,1-1.553-1.352c-1.573-1.312-4.36-.77-5.706-1.1-0.586-.143-2.832-1.467-4.584-1.173A10.418,10.418,0,0,0,224,126.724C222.737,127.381,221.9,127.578,221.32,128.488Zm12.825,92.6c-0.151-.368,2.11-1.776,4.353-2.716,3.528-1.479,6.7-1.63,11.651-1.477a48.147,48.147,0,0,0,8.215-.075,26.232,26.232,0,0,0,7.313-1.875c1.846-1.091,3.3-2.575,4.821-2.1,0.921,0.287,1.7,1.233,1.524,1.814-0.247.8-2.908,0.594-4.581,1.3-1.855.782-2.31,1.9-4.12,2.781-2.573,1.249-4.6,1.308-5.749.968s-2.048-1.368-3.592-1.485a8.77,8.77,0,0,0-3.692,1.224c-1.163.655-1.8,1.326-2.637,1.273-1.646-.1-2.217-2.174-3.943-2.63a7.977,7.977,0,0,0-4.526,1.362,12.666,12.666,0,0,1-2.923,1.412C235.466,221.094,234.248,221.338,234.145,221.087Zm18.034-91.625a1.57,1.57,0,0,0-.668,1.682,2.112,2.112,0,0,0,1.3,1.128c1.189,0.625,1.885,1.057,2.42.817a1.749,1.749,0,0,0,.87-1.469,2.108,2.108,0,0,0-.947-1.838,3.633,3.633,0,0,0-1.55-.4A2.19,2.19,0,0,0,252.179,129.462ZM230.2,120.35a0.979,0.979,0,0,0,.151.816,2.547,2.547,0,0,0,3.626.2,1.5,1.5,0,0,0,.085-1.82c-0.327-.3-0.9-0.082-1.894.1C231.062,119.852,230.382,119.88,230.2,120.35Zm47.615,0.138a14.969,14.969,0,0,0,3.418,1.711c0.678,0.278,1.451.605,1.946,0.842a23.441,23.441,0,0,0,2.446,1.29c1.387,0.491,2.342.371,3.392,1.238,0.622,0.513,1.277,1.353,1.05,1.839-0.382.82-3.024-.006-3.289,0.652-0.185.458,0.8,1.592,2,1.788,1.02,0.166,1.618-.462,2.6-0.436,1.514,0.04,2.808,1.26,2.682,1.571-0.082.2-1.127,0-1.894,0.1-1.26.171-2.354,0.724-2.317,1.074,0.041,0.382,1.423.417,1.473,0.868,0.038,0.355-.808.528-0.9,1-0.168.886,3.6,2.825,4.468,3.55a34.388,34.388,0,0,1,3.573,4.547,5,5,0,0,1,1.128,3.257c-0.064.947-.5,2.255-1.292,2.44-0.967.223-2.856-2.579-3.5-3.129-0.945-.812-3.75-2.069-4.968-4a2.988,2.988,0,0,1-.6-2.337,2.7,2.7,0,0,0,.422-0.971c-0.053-.792-1.558-1.492-2.945-1.736-0.32-.057-2.242.075-3.141-0.531a3.621,3.621,0,0,1-1.276-2.074,11.036,11.036,0,0,0-1.6-3.231c-1.643-1.779-3.973-1.109-5.39-3.026-0.471-.637-0.512-1.2-1.05-1.839a12.844,12.844,0,0,0-1.5-1.341,10.91,10.91,0,0,1-.941-0.9c-0.617-.74-0.7-1.4-1.3-2.017-0.884-.912-1.914-0.687-3.505-1.114-1.426-.382-2.766-1.21-4.538-1.577-0.633-.131-1.692-0.285-1.894.1-0.214.411,0.691,1.233,0.551,1.392a3.748,3.748,0,0,1-1.153-.425c-1.2-.417-2.6-0.162-2.662.158-0.068.375,1.628,1.291,3.393,1.238,0.979-.029,1.429-0.422,2.409-0.441,1.6-.03,2.745,1.169,3.825,1.525,0.532,0.176,2.8.2,3.866,1.213a3.893,3.893,0,0,1,1.05,1.839,3.239,3.239,0,0,1,1.472.868c-0.055.2-1.181,0.16-2.211-.217a4.77,4.77,0,0,1-2.154-1.442,2.445,2.445,0,0,0-1-.894,1.284,1.284,0,0,0-1.412.076c-0.151.337,0.68,0.84,0.542,1.393a0.873,0.873,0,0,1-.448.5c-0.9.488-2.336-.471-2.678-0.693A28.294,28.294,0,0,0,256,121.2c-1.841-.408-3.988-0.352-6.234-1.084-1.9-.621-5.5-2.186-5.442-3.971,0.017-.556.6-1.123,0.4-1.444-0.34-.542-2.567.323-4.335-0.054-1.029-.219-2.364-0.785-2.4-1.477-0.029-.254.543-0.63,0.543-0.913q-1.712.032-3.436,0.125-4.788.26-9.433,0.976c0.4,0.826,2.894-.792,3.353.773,0.111,0.377-.48.919-1.343,1.5-1.638,1.092-3.356.787-5.184,0.755-1.8-.032-4.033.688-6.144,1.028-0.592.095-2.752,0.443-3.094,1.642-0.2.709,0.471,1.528,0.212,1.8-0.405.432-2.512-1.313-4.58-1.366-2.048-.053-3.126,1.345-5.478,2.479-1.945.936-3.607,0.985-5.564,2.23a38.033,38.033,0,0,0-3.28,2.7c-1.723,1.351-3.257,1.87-5.055,3.119a23.145,23.145,0,0,0-4.978,4.536,17.781,17.781,0,0,0-2.61,4.407c-0.864,2.345-.907,4.388-2.558,5.353-1.136.664-2.652,0.6-2.842,0.154s0.961-1.363.87-1.469c-0.125-.146-2.191,1.7-3.264,1.125-0.551-.3-0.445-1-1.024-1.367-0.87-.548-2.119.4-2.368,0.129-0.319-.343.1-0.312,0.036-0.631A95.259,95.259,0,0,0,274.061,296.362c-0.189-.657.844-2.571,0.815-3.174,0.021-1.82-.868-2.414-0.706-4.228,0.218-2.428,2.3-4.148,3.007-5.851a21.156,21.156,0,0,0,.694-5.247c0.119-3.207-.33-5.666-0.839-6.121-2.021-1.808-6.057.454-9.533-.609-3.373-1.032-3.928-3.722-6.956-5.607s-5.509-1.922-6.888-4.367c-0.487-.863-0.832-3.511-0.361-6.617,0.263-1.729.7-3.8,1.112-5.748,0.391-1.864.795-4.038-.334-6.144-0.708-1.32-2.152-2.867-3.47-2.656-1.065.17-1.423,1.507-2.265,2.019-2.4,1.459-6.02-1.565-10.652-3.689-4.786-2.194-9.187-1.845-12.072-3.611a5.054,5.054,0,0,0-5.235-.19c-3.641,1.578-8.8-.162-11.5-1.747a15.915,15.915,0,0,1-5.535-5.862c-1.807-2.86-3.674-4.26-5.148-7.305a17.422,17.422,0,0,0-5.114-6.681c-0.707-.518-2.8-1.929-3.4-1.389-0.328.292-.156,1.1,0.37,2.308a16.93,16.93,0,0,0,3.334,4.65c1.157,1.293,3.172,3.859,2.623,4.549-0.381.479-1.87-.1-2.394-0.344-3.042-1.4-4.31-4.759-4.571-5.441a106.7,106.7,0,0,0-5.355-11.085c-0.843-1.524-3.72-4.591-4.2-7.357-1.071-6.161,4-9.31,2.939-15.8-0.367-2.242-1.507-3.661-2.23-6.041a26.721,26.721,0,0,1-1.282-6.093c0.05-1.541,1.379-4.88.536-7.613-0.305-.987-1.3-3.438-3.547-4.074a4.852,4.852,0,0,0-2.842.154,7.429,7.429,0,0,0-1.843,1.048,13.089,13.089,0,0,1-4.685,1.2c-2.372.227-3.936-.238-4.314-0.714a7.436,7.436,0,0,1-.576-1.864,1.106,1.106,0,0,1-.052-0.946,1.01,1.01,0,0,1,.973.422,4.942,4.942,0,0,1,.551,1.392c0.909,1.389,5.029.586,7.526-1.356,1.014-.788,1.419-1.434,1.318-1.968-0.112-.595-0.806-0.758-1.024-1.366a3.38,3.38,0,0,1,.818-2.415c1.213-1.766,2.473-2.5,3.187-2.543a3.332,3.332,0,0,0,1.42-.077,2.2,2.2,0,0,0,1.171-1.366c0.279-.93-0.4-1.839.044-2.492a1.634,1.634,0,0,1,1.4-.549c0.583,0.035,1.1.562,1.447,0.395s0.316-1.186.4-1.443c0.572-1.832,3.7-3.062,5.107-2.173,0.983,0.62.759,2.167,1.6,3.231a7.168,7.168,0,0,0,3.418,1.711c1.61,0.411,2.726.228,4.314,0.714s2.292,1.269,3.892,1.685a12.416,12.416,0,0,0,3.341.293,30.585,30.585,0,0,0,3.789-.206,14.714,14.714,0,0,0,4.612-2.035c-0.231-.3-0.367.368-0.5-1.032-0.082-.844,1.038-1.582.844-1.942-0.222-.413-1.826.279-2.393-0.344a1.525,1.525,0,0,1-.078-1.418c0.478-1.311,2.331-1.752,2.265-2.018-0.034-.14-0.595-0.228-1.664-0.047-1.252.213-3.02,1.2-4.558,1.015-0.978-.119-2.19-0.64-2.354-1.451-0.208-1.029,1.289-2.424,2.713-2.518,0.846-.055,1.089.39,1.92,0.37,1.308-.031,1.662-1.145,2.79-1.1,1.318,0.053,1.9,1.684,3.444,2.183a2.622,2.622,0,0,0,2.445-.211,1.462,1.462,0,0,0,.294-1.833c-0.4-.288-1.286.475-1.58,0.2-0.241-.228.247-0.926,0.082-1.539-0.19-.706-1.114-1.077-1.025-1.367,0.116-.373,1.671-0.091,1.869-0.575,0.147-.359-0.588-0.809-0.551-1.392,0.043-.663.913-1.179,1.817-1.521,0.82-.31,2.131-0.563,2.368-0.128,0.3,0.557-1.573,1.688-1.714,3.411a10.489,10.489,0,0,0,.628,2.81,3.6,3.6,0,0,1,.1,1.891c-0.8,1.358-4,.386-4.658,1.674a3.446,3.446,0,0,0,.077,1.418c-0.042,1.326-1.208,2.06-.959,3.182a1.143,1.143,0,0,0,.713,1.03,6.14,6.14,0,0,1,3.293-.585c0.644,0.081,2.212.408,2.446,1.289,0.211,0.8-.867,1.421-0.819,2.415,0.048,0.974,1.032,1.5,2.049,2.733,0.929,1.128,1.252,1.939,1.076,2.311-0.376.795-2.368,1.024-3.315,0.18-1.1-.979-0.185-3.151-1.153-3.729a1.462,1.462,0,0,0-1.869.575c-0.158.571,0.91,1.006,1.05,1.839,0.253,1.5-2.285,3.044-3.057,4.906a4.946,4.946,0,0,0-.144,4.016c0.631,1.17,2.329,2.124,5.714,2.318,2.507,0.144,4.237-.412,5.261.663,0.958,1,.305,2.825,1.128,3.257,0.794,0.417,2.431-.7,3.212-2.07a5.176,5.176,0,0,0,.242-4.28c-0.618-1.676-1.8-2.2-2.574-3.652-0.923-1.743-1.352-4.255-.284-5.2a3.552,3.552,0,0,1,2.842-.154c1.759,0.422,2.809,1.724,4.366,1.659,1.732-.072,2.434-1.743,4.185-1.649a4.21,4.21,0,0,1,2.445,1.29c1.8,1.448,4.511,2.358,7.758,2.9,0.847,0.141,2.967.438,3.418,1.711a2.492,2.492,0,0,1-.37,1.916,13.011,13.011,0,0,1-1.74,2.938c-1.917,1.663-4.077.594-5.9,2.283a5.039,5.039,0,0,0-1.424,2.855,1.558,1.558,0,0,0,.077,1.417c0.613,0.327,2.281-2.461,3.686-2.1,1.035,0.27,1.006,1.931,2.147,2.412,1.494,0.63,3.464-1.391,4.113-.855,0.284,0.235.13,1.042-.345,2.389-0.7,1.973-1.245,2.98-1.74,2.938-0.6-.051-0.662-1.537-1.524-1.813-0.465-.149-1.468.355-2.764,1.572a5.538,5.538,0,0,0-1.766,2.466c-0.08,1.331,1.235,1.946,1.127,3.257-0.085,1.046-1.034,1.489-2.01,2.69a8.494,8.494,0,0,0-1.495,2.714,11.221,11.221,0,0,0-.216,4.752,15.794,15.794,0,0,1-.242,4.279c-0.822,3.093-3.933,5.071-3.825,8.265a5.57,5.57,0,0,0,1.128,3.257c0.836,1.013,2.468,1.356,3,2.682a2.155,2.155,0,0,1-.345,2.389c-0.853.572-2.724-.53-3.892-1.685-1.08-1.068-1.3-2.379-2.548-3.18-1.028-.661-2.774-0.381-5.236-0.19-1.342.1-2.612,0.205-3.264,1.125-0.56.791-.165,1.787-0.818,2.414-0.718.689-1.936,0.141-3.789,0.206a7.524,7.524,0,0,0-2.816.626,5.836,5.836,0,0,0-2.661,3.463c-0.506,1.752.239,2.52-.242,4.279-0.43,1.573-1.357,1.82-1.714,3.411a6.3,6.3,0,0,0,2.229,6.041c1.375,1.069,2.993.684,5.287,1.136,2.05,0.4,3.265.917,4.617,0.218a8.615,8.615,0,0,0,2.358-2.967,6.216,6.216,0,0,1,1.77-2.39c0.9-.669,2.244-1.185,2.812-0.7,0.528,0.448.149,1.716-.268,3.806-0.339,1.7-.461,2.867.206,3.781a3.415,3.415,0,0,0,2.919,1.264c1.664-.126,2.2-1.616,3.712-1.623a3.979,3.979,0,0,1,3.5,3.128c0.2,1.184-.539,1.707-0.32,2.862a4.418,4.418,0,0,0,3.97,3.1c1.767,0.082,2.486-1.314,4.185-1.649,1.541-.305,3.6.7,4.736-0.257a2.943,2.943,0,0,0,.844-1.942c0.492-2.983,3.629-5.54,4.875-6.426,2.749-1.956,7.349-1.94,8.9-2.379,2.9-.824,4.48-2.084,7.027-1.8,3.128,0.345,4.4,2.241,7.284,2.923a21.171,21.171,0,0,0,7.578-.411c2.436-.526,4.719-1.364,5.683-0.308,0.982,1.074-.332,3.143.706,4.228,0.414,0.433,1.537.682,3.341,0.293a12.169,12.169,0,0,0,4.633-2.148c1.454-1.087,2.1-2.169,3.634-3.041,1.613-.915,5.079-2.2,8.052-0.436a5.174,5.174,0,0,1,2.548,3.18c0.355,1.941-1.134,3.229-2.533,5.825-2.044,3.793-2.475,6.649-1.431,8.61,0.434,0.814,1.2,1.221,1.55,2.286,0.5,1.505-.332,4.193-3.362,7.711-1.323,1.536-3.185,3.156-4.071,4.068a52.013,52.013,0,0,0-3.557,4.459,61.586,61.586,0,0,0-3.517,5.2c-1.767,3.2-2.406,5.72-4.761,8.519a30.713,30.713,0,0,1-5.452,4.561c-1.756,1.188-4.288,2.357-6.424,4.141-2.709,2.262-4.592,4.916-4.9,5.954-0.54,1.449-.6,1.783-0.457,2.022a95.147,95.147,0,0,0,47.485-122.282c-0.448.967,1.088,4.686,0.911,4.178,0.531,1.527.775,3.036,1.235,4.681,0.528,1.887.255,3.772,0.334,6.127a2.392,2.392,0,0,1-.592,1.988c-0.5.378-1.5,0.344-3.1-.391a10.954,10.954,0,0,1-2.324-1.55c-0.652-.62-1.522-1.448-1.822-1.79a24.125,24.125,0,0,1-2.807-3.545c-0.453-1.172-.235-3.628-1.529-4.945a4.338,4.338,0,0,0-1.449-.9,11.211,11.211,0,0,1-4.383-3.394c-0.816-1.325-.476-2.177-1.174-3.568-0.8-1.585-2.113-2.1-2.74-4.041a11.142,11.142,0,0,1-.283-2.638,13.379,13.379,0,0,0-1.414-5.029c-0.5-.91-1.128-1.56-1.648-2.347a14.91,14.91,0,0,1-2.056-4.357c-0.126-.729.15-2.928-0.662-4.434-0.6-1.12-1.352-1.356-2.09-2.4a5.249,5.249,0,0,1-1.153-4.062c0.18-.888.726-1.971,1.318-1.967,0.935,0.006,1.485,2.813,2.049,2.733,0.372-.053.178-1.344,0.722-1.891,0.622-.625,1.055-0.218.732-0.512a95.631,95.631,0,0,0-27.885-17.686C276.5,119.64,277.141,120,277.816,120.488Zm-10.98,7.706c-0.24.4,0.354,1.161,0.55,1.392a5.846,5.846,0,0,0,4.144,1.534c0.769,0.038,1.351-.066,2.116.022a8.851,8.851,0,0,1,3.393,1.238c1.136,0.675,2.274,1.909,2.471,1.762,0.239-.177-0.652-1.688-1.078-2.356a4.44,4.44,0,0,0-2.289-2.13,5.3,5.3,0,0,0-2,.021c-1.4.045-2.37-.695-3.968-1.191S267.133,127.7,266.836,128.194Zm19.618-95.28c10.47,6.214,26.382,18.981,32.021,38.194-0.077,7.105-.731,12.7-5.922,15.756q-0.117-.405-0.235-0.811c2.762-15.241-10.011-25.122-18.491-29.8,1.638,8.181,5.292,45.424,3.362,49.962-4.727,11.114-19.79,10.3-26.017-.409-2.348-3.548-2.653-8.7-2.95-12.321,6.062-12.18,15.467-9.071,23.74,1.065l0.57-.164Q289.493,63.654,286.454,32.914Zm91.913,113.351c6.863,8.04,16.352,22.967,15.562,40.223-2.074,5.766-4.195,10.141-9.332,11.151l0.036-.727c6.584-11.631-1.137-23.314-6.8-29.534-0.966,7.13-8.489,38.511-11.361,41.659-7.035,7.71-19.2,2.76-21.3-7.732-0.93-3.559.276-7.841,1.056-10.878,8.435-8.2,15.3-2.991,19.244,7.619l0.515,0.029Zm-32.279-38.357,0.876,0.329c0.339,3.2,1.8,6.115,2.626,8.885,1.665,5.6,2.158,11.2,3.794,16.781,0.717,2.443,3.012,7.79,1.168,10.859-1.043,4.1-9.657,5.862-11.09.987-2.016-3.641,3.107-7.281,5.253-7.9,1.4-.4,2.2.463,2.918-0.658-1.71-2.657-2.811-9.788-3.794-13.162-0.494-1.7-.213-3.47-1.459-4.278-3.209,3.3-8.8,3.925-13.133,5.923,1.249,7.252,3.4,15.15,2.627,23.363-1.069.929-2.125,2.425-3.5,2.961a6.523,6.523,0,0,1-9.047-5.594c0.991-1.444,1.207-2.955,2.919-3.619,1.606-1.5,4.787-.921,6.712-0.329-0.762-8.922-3.292-17.363-4.378-25.337C333.243,115.134,343.454,111.822,346.088,107.908ZM221.722,26l-1.1.41c-0.426,3.987-2.267,7.612-3.3,11.06-2.092,6.975-2.713,13.948-4.769,20.891-0.9,3.041-3.786,9.7-1.468,13.518,1.31,5.105,12.14,7.3,13.942,1.229,2.533-4.533-3.907-9.064-6.6-9.831-1.755-.5-2.769.577-3.669-0.819,2.15-3.307,3.535-12.185,4.77-16.385,0.621-2.112.268-4.32,1.834-5.325,4.035,4.1,11.056,4.887,16.51,7.373-1.57,9.028-4.271,18.861-3.3,29.084,1.344,1.158,2.672,3.019,4.4,3.687a8.2,8.2,0,0,0,11.373-6.964c-1.246-1.8-1.517-3.679-3.669-4.506-2.019-1.863-6.017-1.145-8.438-.41,0.958-11.106,4.138-21.614,5.5-31.542C237.87,34.994,225.033,30.87,221.722,26ZM379.269,45.112c-14.583.758-22.767,6.24-38.626,7.044l2.146,2.348A45.094,45.094,0,0,0,371.4,52.743v1.174q0.714,2.054,1.43,4.109H371.4c-8.3,3.752-19.252,4.237-30.043,2.935l3.577,3.522c10.928,3.809,19.409,3.211,30.042-1.174q2.145,15.554,4.292,31.111c-6.374-2.633-17.469-2.689-20.744,2.348-1.929,1.59-2.493,2.852-2.861,5.87,2.676,3.564,3.531,5.945,8.584,7.631C403.921,120.718,382.978,64.185,379.269,45.112Z"/>
  <path id="Front_fingers" data-name="Front fingers" class="cls-1" d="M95.246,43.292c2.113-.776,5.907-0.077,10.948,3.64A36.38,36.38,0,0,1,118.054,62.4c7.323,18.8,4.286,45.456,3.649,54.607C121,127.194,124.37,169.948,132.651,197.1c4.593,15.059,19.6,30.733,38.317,55.516,11.869,15.717,28.339,26.8,42.879,30.034,6.521,1.451,8.814,1.846,12.772,1.82a17.694,17.694,0,0,0-.912-8.191c3.582,10.465-11.184-28.9-31.931-57.336-9.6-13.158-45.16-45.909-42.879-64.618,0.875-7.179,3.361-12.054,6.386-15.472,6.065-6.851,15.5-8.847,21.9-9.1,18.4-.731,30.961,13.234,43.791,28.213,18.486,21.584,21.683,36.743,32.843,51.877,15.727,21.327,48.312,51.243,60.213,59.156,8.329,5.539,33.86,20.876,41.054,37.315C415.766,440.424,362.554,411.605,325.409,474c-9.021-11.142-19.745-46.8-38.577-63.027-32.818-28.283-72.029-44.03-96.7-58.247-16.138-9.3-21.115-12.3-46.528-40.044-24.742-27.015-48.226-60.31-54.739-95.562C78.109,158.93,77.161,105.581,77,107.91c0.615-8.872,3.592-12.093,4.562-20.933,1.389-12.655,1.788-16.529,3.649-29.123C85.668,54.76,90.4,45.07,95.246,43.292Z"/>
</svg>
