<svg xmlns="http://www.w3.org/2000/svg" width="500" height="500" viewBox="0 0 500 500">
  <defs>
    <style>
      .cls-1 {
        fill: #00c6c2;
      }

      .cls-1, .cls-2 {
        fill-rule: evenodd;
      }

      .cls-2 {
        fill: #ecfdfc;
      }
    </style>
  </defs>
  <path id="Back_fingers" data-name="Back fingers" class="cls-1" d="M147.907,42.485A15.222,15.222,0,0,0,133.1,47.411c-3.462,4.371-2.1,9.239-2.713,15.532-0.87,8.973-5.3,12.541-9.133,20.923-2.811,6.151-5.137,25.485-3.949,45.322,1.1,18.351,3.917,34.257,7.9,47.293,3.585,11.742,5.4,22.1,10.858,31.529,5.172,8.929,13.983,17.11,17.769,21.676,7.272,8.771,16.66,24.453,27.64,33.5,15.508,12.779,32.686,17.779,38.5,18.721-0.4-8.1-12.858-30.69-26.653-53.205-7-11.417-31.907-40.267-34.55-43.352-4.456-5.2-17.3-18.123-17.768-34.485-0.277-9.668,2.135-15.987,4.936-19.705,4.082-5.42,8.205-6.44,12.832-10.838,1.156-7.512,2.22-11.432,2.962-20.691A182.811,182.811,0,0,1,163.7,76.969c0.355-2.5,1.154-10.51-.987-17.735A27.33,27.33,0,0,0,156.791,48.4,20.347,20.347,0,0,0,147.907,42.485ZM210.1,73.028a13.883,13.883,0,0,0-6.91-1.971c-1.854.015-5.435,0.47-7.9,2.956-3.517,3.55-2.491,8.993-1.974,16.75,0.526,7.9.038,15.94-.987,18.72a49.457,49.457,0,0,0-2.961,10.838c18.556,9.423,13.8,9.4,22.7,15.764,5.024,3.589,8.074,11.413,9.871,10.838,0.456-6.636.6-8.3,0-18.72-0.72-12.57-1.008-26,.342-32.227a20.571,20.571,0,0,0-.342-11.125C220.659,81.28,217.329,76.885,210.1,73.028ZM252.544,101.6a9.929,9.929,0,0,0-6.91,3.941c-2.263,3.288-1.108,6.934-.988,11.823a37.3,37.3,0,0,1-.987,8.868c-1.171,5.283-3.619,9.519-4.935,13.793a98.134,98.134,0,0,0-1.975,10.838c-0.791,5.433-.743,4.921-0.987,13.794,4.487,8.069,5.577,12,10.859,19.706,4.76,6.949,7.178,13.934,10.858,19.7,2.359-6.254,2.845-4.074,3.934-11.19,1.426-9.32.5-17.98,2.976-28.221,0.593-2.452,1.39-4.442,1.975-6.9,1.774-7.457,1.621-13.551,1.974-21.676a134.208,134.208,0,0,0-.535-17.614c-0.346-3.459-1.093-8.85-5.388-12.929C259.914,103.167,256.368,101.125,252.544,101.6Z"/>
  <path id="Earth_and_Notes" data-name="Earth and Notes" class="cls-2" d="M194.855,137.047c0.322,0.782,1.533.584,2.133,1.424s0.039,1.755.652,2.53c0.65,0.822,2.019.739,2.941,0.671,2.77-.2,4.435-0.311,4.746-1.088,0.345-.862-0.83-1.715-0.814-3.094,0-.408.368-1.445,0.095-1.667-0.5-.4-2.025,1.206-3.6.89a2.906,2.906,0,0,1-1.593-.94c-0.554-.65-0.513-1.686-1.136-1.991a2.214,2.214,0,0,0-2.022.623C195.441,135.018,194.513,136.218,194.855,137.047Zm17.4-1.457c0.127,0.547.834,1.294,2.41,1.821a15.643,15.643,0,0,0,3.367.431c1.825,0.262,2.291,1.237,4.132,1.339,0.985,0.055,1.8-.114,2.129.374,0.233,0.343.1,1.095-.552,2.233-0.464.813-.914,1.268-0.791,1.432,0.2,0.268,1.594-.865,3.047-0.678,1.543,0.2,2.01,1.477,3.625,1.85,0.639,0.147,2.322.363,3.121-.677a2.93,2.93,0,0,0-.719-3.694c-0.967-.761-2.518-0.4-2.607-0.744-0.07-.27.764-0.81,1.585-1.148a1.353,1.353,0,0,0,.894-0.526c0.139-.5-0.79-1.349-1.819-1.716-1.253-.447-2.034.08-3.166-0.172-1.313-.293-1.794-1.213-2.922-1.732-1.29-.595-2.11-0.307-3.467-0.729a14.8,14.8,0,0,0-3.219-1.143,4.895,4.895,0,0,0-3.65.837C213.267,133.245,211.969,134.371,212.25,135.59Zm7.907-16.637c-0.589.92-.3,1.982-0.5,3.459a3.565,3.565,0,0,0,.234,2.5,2.72,2.72,0,0,0,1.081.968c1.642,0.877,3.259.175,5.152,0.233a14.234,14.234,0,0,1,5.154,2.076,39.108,39.108,0,0,1,3.865,3.08,31.785,31.785,0,0,0,4.779,2.82c2.879,1.428,5.406,1.689,8.177,2.8,0.564,0.226,1.768.716,2.267,0.228,0.6-.585-0.143-2.275-0.507-2.993a12.309,12.309,0,0,0-1.849-2.524c-1.229-1.462-2.15-2.878-1.733-3.5,0.321-.477,1.384-0.232,1.51-0.595,0.218-.625-2.764-1.828-2.757-3.443,0-.922,1.143-1.706.913-2.1-0.26-.448-1.814.282-2.59-0.372-0.674-.569-0.208-1.544-0.861-2.092-0.777-.652-2.153.222-3.378-0.244a5.469,5.469,0,0,1-1.68-1.464c-1.7-1.421-4.717-.834-6.174-1.189-0.635-.155-3.065-1.588-4.961-1.271-1.248.209-2.7,1.436-3.238,1.716C221.69,117.754,220.788,117.968,220.157,118.953ZM234.034,219.2c-0.164-.4,2.283-1.923,4.71-2.941,3.817-1.6,7.251-1.764,12.606-1.6a52.125,52.125,0,0,0,8.89-.081,28.408,28.408,0,0,0,7.912-2.03c2-1.181,3.567-2.788,5.216-2.274,1,0.31,1.842,1.334,1.649,1.963-0.266.872-3.146,0.643-4.957,1.407-2.006.847-2.5,2.059-4.458,3.011-2.783,1.352-4.979,1.416-6.22,1.048s-2.215-1.481-3.886-1.607a9.472,9.472,0,0,0-4,1.324c-1.258.709-1.943,1.436-2.853,1.379-1.782-.113-2.4-2.354-4.267-2.848-0.692-.183-2.685.2-4.9,1.475a13.739,13.739,0,0,1-3.163,1.529C235.463,219.206,234.145,219.471,234.034,219.2Zm19.513-99.192a1.7,1.7,0,0,0-.723,1.82,2.285,2.285,0,0,0,1.4,1.222c1.286,0.677,2.04,1.145,2.618.885a1.9,1.9,0,0,0,.941-1.591,2.28,2.28,0,0,0-1.025-1.99,3.9,3.9,0,0,0-1.676-.429A2.37,2.37,0,0,0,253.547,120.007Zm-23.781-9.865a1.057,1.057,0,0,0,.164.883c0.678,1.073,3.056,1.329,3.923.212a1.619,1.619,0,0,0,.093-1.969c-0.355-.327-0.979-0.09-2.05.111C230.7,109.6,229.963,109.633,229.766,110.142Zm51.521,0.15a16.234,16.234,0,0,0,3.7,1.852c0.734,0.3,1.57.655,2.106,0.912a25.454,25.454,0,0,0,2.646,1.4c1.5,0.532,2.534.4,3.671,1.34,0.673,0.556,1.381,1.465,1.136,1.991-0.414.888-3.273-.006-3.559,0.706-0.2.5,0.866,1.724,2.161,1.936,1.1,0.18,1.751-.5,2.819-0.472,1.638,0.043,3.038,1.364,2.9,1.7-0.089.219-1.22,0-2.05,0.111-1.363.185-2.547,0.784-2.507,1.162,0.044,0.414,1.54.452,1.593,0.94,0.042,0.384-.873.572-0.969,1.079-0.181.959,3.9,3.058,4.835,3.843a37.357,37.357,0,0,1,3.866,4.922,5.412,5.412,0,0,1,1.22,3.526c-0.069,1.025-.535,2.442-1.4,2.642-1.046.241-3.09-2.792-3.782-3.387-1.023-.88-4.058-2.24-5.376-4.327a3.245,3.245,0,0,1-.652-2.531,2.893,2.893,0,0,0,.457-1.051c-0.057-.857-1.686-1.615-3.186-1.88-0.347-.061-2.426.082-3.4-0.574a3.918,3.918,0,0,1-1.38-2.245,11.937,11.937,0,0,0-1.733-3.5c-1.778-1.926-4.3-1.2-5.832-3.276-0.509-.689-0.553-1.3-1.136-1.991a13.869,13.869,0,0,0-1.621-1.452,11.719,11.719,0,0,1-1.018-.971c-0.667-.8-0.755-1.513-1.4-2.184-0.956-.987-2.07-0.744-3.792-1.2-1.543-.414-2.993-1.311-4.91-1.707-0.685-.142-1.831-0.309-2.05.111-0.231.444,0.748,1.334,0.6,1.507a4.117,4.117,0,0,1-1.247-.46c-1.3-.452-2.817-0.175-2.88.171-0.074.405,1.761,1.4,3.671,1.34,1.059-.031,1.547-0.457,2.607-0.477,1.729-.033,2.97,1.265,4.138,1.651,0.576,0.19,3.026.212,4.183,1.312a4.215,4.215,0,0,1,1.137,1.991c0.744,0.32,1.648.743,1.593,0.94-0.061.216-1.279,0.173-2.393-.235a5.147,5.147,0,0,1-2.331-1.561,2.649,2.649,0,0,0-1.08-.968,1.389,1.389,0,0,0-1.529.083c-0.163.365,0.737,0.909,0.587,1.508a0.943,0.943,0,0,1-.484.539c-0.97.528-2.528-.51-2.9-0.75a30.593,30.593,0,0,0-8.627-3.243c-1.993-.441-4.315-0.381-6.746-1.174-2.06-.672-5.945-2.365-5.888-4.3,0.018-.6.647-1.215,0.429-1.562-0.367-.587-2.777.349-4.69-0.059-1.113-.237-2.558-0.85-2.6-1.6-0.031-.275.588-0.682,0.588-0.989q-1.852.036-3.718,0.136-5.181.282-10.207,1.057c0.437,0.894,3.131-.857,3.629.836,0.12,0.408-.52.995-1.454,1.619-1.772,1.182-3.631.852-5.609,0.817-1.949-.035-4.364.745-6.648,1.113-0.64.1-2.977,0.48-3.348,1.778-0.219.767,0.51,1.654,0.229,1.953-0.438.468-2.717-1.421-4.955-1.48-2.216-.057-3.382,1.458-5.928,2.684-2.1,1.014-3.9,1.067-6.019,2.415a40.793,40.793,0,0,0-3.549,2.926c-1.865,1.462-3.524,2.024-5.47,3.376a25.049,25.049,0,0,0-5.386,4.911,19.2,19.2,0,0,0-2.824,4.772c-0.935,2.538-.982,4.75-2.769,5.794-1.228.719-2.869,0.653-3.074,0.167s1.039-1.475.941-1.59c-0.135-.158-2.371,1.841-3.532,1.218-0.6-.321-0.481-1.084-1.108-1.48-0.941-.594-2.293.429-2.562,0.139-0.346-.371.1-0.338,0.039-0.682A103.1,103.1,0,0,0,277.224,300.691c-0.2-.711.913-2.783,0.881-3.436,0.024-1.971-.939-2.614-0.763-4.577,0.236-2.629,2.489-4.491,3.253-6.334a22.9,22.9,0,0,0,.751-5.681c0.129-3.472-.357-6.134-0.907-6.627-2.187-1.957-6.554.492-10.316-.659-3.65-1.117-4.25-4.029-7.526-6.07-3.292-2.052-5.96-2.081-7.453-4.728-0.527-.934-0.9-3.8-0.39-7.163,0.284-1.871.76-4.109,1.2-6.223,0.423-2.018.86-4.371-.362-6.651-0.766-1.429-2.328-3.1-3.755-2.876-1.152.185-1.539,1.632-2.45,2.186-2.6,1.58-6.514-1.694-11.525-3.993-5.179-2.376-9.941-2-13.062-3.91a5.471,5.471,0,0,0-5.665-.206c-3.94,1.709-9.526-.174-12.449-1.89a17.249,17.249,0,0,1-5.989-6.346c-1.955-3.1-3.975-4.613-5.57-7.909a18.864,18.864,0,0,0-5.534-7.233c-0.765-.561-3.025-2.088-3.68-1.5-0.354.316-.168,1.189,0.4,2.5a18.316,18.316,0,0,0,3.607,5.034c1.252,1.4,3.432,4.178,2.838,4.925-0.412.518-2.023-.113-2.59-0.373-3.291-1.511-4.663-5.151-4.946-5.889a115.63,115.63,0,0,0-5.794-12c-0.913-1.649-4.025-4.97-4.545-7.964-1.159-6.67,4.33-10.079,3.18-17.107-0.4-2.427-1.63-3.964-2.412-6.54a28.915,28.915,0,0,1-1.387-6.6c0.054-1.668,1.492-5.284.579-8.242-0.33-1.069-1.405-3.722-3.838-4.41a5.225,5.225,0,0,0-3.075.167,8,8,0,0,0-1.994,1.134,14.176,14.176,0,0,1-5.069,1.3c-2.566.244-4.259-.258-4.668-0.774a8.083,8.083,0,0,1-.623-2.018,1.2,1.2,0,0,1-.056-1.024,1.1,1.1,0,0,1,1.053.456,5.382,5.382,0,0,1,.6,1.508c0.983,1.5,5.441.634,8.143-1.469,1.1-.853,1.535-1.551,1.426-2.13-0.121-.643-0.872-0.821-1.108-1.479a3.659,3.659,0,0,1,.885-2.614c1.312-1.912,2.676-2.7,3.448-2.753a3.608,3.608,0,0,0,1.538-.083,2.388,2.388,0,0,0,1.266-1.479c0.3-1.008-.432-1.991.048-2.7a1.769,1.769,0,0,1,1.509-.595c0.63,0.039,1.194.609,1.566,0.429s0.342-1.284.429-1.563c0.618-1.984,4-3.315,5.525-2.353,1.064,0.672.821,2.346,1.733,3.5a7.726,7.726,0,0,0,3.7,1.852c1.742,0.445,2.95.247,4.668,0.773s2.48,1.374,4.211,1.825a13.454,13.454,0,0,0,3.615.317,33.046,33.046,0,0,0,4.1-.223,15.912,15.912,0,0,0,4.989-2.2c-0.249-.324-0.4.4-0.544-1.117-0.089-.914,1.123-1.712.913-2.1-0.241-.448-1.976.3-2.59-0.373a1.653,1.653,0,0,1-.083-1.535c0.516-1.419,2.522-1.9,2.45-2.185-0.037-.152-0.644-0.247-1.8-0.05-1.354.23-3.267,1.3-4.932,1.1-1.057-.129-2.369-0.693-2.547-1.571-0.225-1.114,1.395-2.623,2.936-2.725,0.915-.061,1.178.422,2.078,0.4,1.415-.034,1.8-1.239,3.019-1.19,1.426,0.058,2.056,1.823,3.726,2.364,0.519,0.168,1.884.5,2.645-.229,0.6-.577.71-1.7,0.318-1.985-0.43-.311-1.392.515-1.709,0.215-0.261-.247.267-1,0.088-1.666-0.205-.764-1.205-1.166-1.108-1.48,0.125-.4,1.808-0.1,2.022-0.622,0.159-.39-0.637-0.877-0.6-1.507,0.046-.718.987-1.276,1.966-1.647,0.887-.335,2.306-0.61,2.562-0.139,0.329,0.6-1.7,1.828-1.854,3.693a11.263,11.263,0,0,0,.679,3.042,3.912,3.912,0,0,1,.112,2.047c-0.865,1.47-4.335.418-5.041,1.813a3.724,3.724,0,0,0,.083,1.535c-0.045,1.435-1.307,2.23-1.037,3.445a1.238,1.238,0,0,0,.771,1.115,6.636,6.636,0,0,1,3.564-.634c0.7,0.087,2.393.441,2.646,1.4,0.228,0.861-.938,1.538-0.886,2.614,0.052,1.055,1.116,1.619,2.217,2.959,1,1.221,1.355,2.1,1.164,2.5-0.406.86-2.563,1.108-3.587,0.2-1.188-1.06-.2-3.411-1.248-4.038a1.58,1.58,0,0,0-2.021.623c-0.172.618,0.984,1.09,1.136,1.991,0.273,1.623-2.473,3.3-3.309,5.311a5.361,5.361,0,0,0-.155,4.348c0.683,1.266,2.52,2.3,6.182,2.509,2.713,0.157,4.585-.446,5.693.718,1.037,1.088.33,3.059,1.22,3.526,0.86,0.451,2.631-.755,3.476-2.241a5.6,5.6,0,0,0,.262-4.633c-0.669-1.815-1.951-2.376-2.786-3.954-1-1.887-1.462-4.607-.306-5.628,0.384-.339,1.466-0.553,3.075-0.167,1.9,0.457,3.039,1.866,4.723,1.8,1.875-.078,2.634-1.887,4.529-1.785a4.56,4.56,0,0,1,2.646,1.4c1.951,1.568,4.88,2.553,8.394,3.137,0.916,0.152,3.211.473,3.7,1.852a2.7,2.7,0,0,1-.4,2.074,14.124,14.124,0,0,1-1.883,3.181c-2.074,1.8-4.412.643-6.38,2.471a5.461,5.461,0,0,0-1.541,3.091c-0.152.765-.183,1.392,0.084,1.535,0.664,0.353,2.468-2.666,3.988-2.27,1.12,0.292,1.089,2.09,2.323,2.611,1.617,0.682,3.748-1.506,4.45-.925,0.308,0.254.141,1.127-.373,2.586-0.753,2.136-1.347,3.226-1.882,3.181-0.654-.056-0.717-1.664-1.649-1.963-0.5-.162-1.588.384-2.991,1.7a6.007,6.007,0,0,0-1.911,2.67c-0.086,1.441,1.336,2.108,1.22,3.526-0.092,1.132-1.119,1.613-2.175,2.913a9.2,9.2,0,0,0-1.618,2.937,12.169,12.169,0,0,0-.234,5.145,17.114,17.114,0,0,1-.261,4.632c-0.89,3.348-4.256,5.49-4.139,8.949a6.029,6.029,0,0,0,1.22,3.525c0.905,1.1,2.671,1.468,3.242,2.9a2.334,2.334,0,0,1-.373,2.586c-0.923.619-2.948-.574-4.211-1.825-1.168-1.156-1.41-2.575-2.758-3.442-1.111-.715-3-0.413-5.664-0.206-1.453.113-2.827,0.223-3.532,1.218-0.607.857-.179,1.935-0.886,2.614-0.776.746-2.095,0.153-4.1,0.222a8.122,8.122,0,0,0-3.047.679,6.316,6.316,0,0,0-2.88,3.748c-0.547,1.9.259,2.728-.261,4.633-0.466,1.7-1.468,1.97-1.855,3.693a6.825,6.825,0,0,0,2.412,6.54c1.488,1.157,3.238.74,5.72,1.229,2.219,0.437,3.533.993,5,.236a9.34,9.34,0,0,0,2.552-3.211,6.712,6.712,0,0,1,1.915-2.588c0.968-.724,2.427-1.283,3.042-0.76,0.571,0.485.162,1.857-.289,4.121-0.367,1.841-.5,3.1.223,4.093a3.7,3.7,0,0,0,3.158,1.368c1.8-.136,2.385-1.75,4.016-1.757a4.3,4.3,0,0,1,3.782,3.387c0.215,1.281-.582,1.847-0.345,3.1a4.779,4.779,0,0,0,4.3,3.359c1.913,0.09,2.691-1.422,4.528-1.785,1.668-.329,3.893.754,5.125-0.278a3.186,3.186,0,0,0,.913-2.1c0.532-3.229,3.927-6,5.275-6.957,2.974-2.117,7.952-2.1,9.625-2.575,3.138-.892,4.848-2.256,7.6-1.952,3.384,0.373,4.76,2.426,7.882,3.164a22.9,22.9,0,0,0,8.2-.444c2.636-.57,5.106-1.477,6.149-0.334,1.063,1.163-.359,3.4.764,4.577,0.448,0.469,1.663.738,3.615,0.317a13.159,13.159,0,0,0,5.013-2.325c1.574-1.177,2.272-2.349,3.932-3.292,1.745-.991,5.5-2.377,8.712-0.473a5.6,5.6,0,0,1,2.757,3.443c0.385,2.1-1.226,3.5-2.74,6.307-2.212,4.106-2.678,7.2-1.548,9.321,0.469,0.88,1.295,1.321,1.676,2.474,0.539,1.629-.359,4.539-3.637,8.348-1.432,1.663-3.446,3.417-4.406,4.405a56.135,56.135,0,0,0-3.848,4.827,66.813,66.813,0,0,0-3.806,5.633c-1.912,3.465-2.6,6.191-5.151,9.221a33.263,33.263,0,0,1-5.9,4.939c-1.9,1.286-4.64,2.551-6.951,4.482-2.931,2.449-4.969,5.322-5.3,6.446-0.584,1.568-.65,1.931-0.494,2.189a103.032,103.032,0,0,0,51.379-132.381c-0.484,1.046,1.177,5.072.986,4.523,0.575,1.653.838,3.287,1.336,5.068,0.572,2.043.276,4.083,0.362,6.633a2.591,2.591,0,0,1-.64,2.151c-0.541.41-1.626,0.373-3.355-.423a11.792,11.792,0,0,1-2.514-1.677c-0.707-.672-1.648-1.568-1.972-1.938a26.017,26.017,0,0,1-3.037-3.839c-0.49-1.268-.255-3.927-1.655-5.353a4.7,4.7,0,0,0-1.567-.973,12.113,12.113,0,0,1-4.743-3.674c-0.884-1.435-.515-2.357-1.271-3.862-0.862-1.716-2.286-2.277-2.964-4.375a12.064,12.064,0,0,1-.307-2.856,14.488,14.488,0,0,0-1.529-5.445c-0.542-.985-1.221-1.689-1.783-2.54a16.155,16.155,0,0,1-2.226-4.718c-0.135-.788.163-3.169-0.715-4.8-0.653-1.213-1.463-1.468-2.262-2.6a5.685,5.685,0,0,1-1.248-4.4c0.2-.961.787-2.134,1.426-2.13,1.012,0.006,1.607,3.045,2.217,2.959,0.4-.058.193-1.455,0.782-2.048,0.673-.676,1.142-0.235.792-0.554a103.461,103.461,0,0,0-30.172-19.146C279.867,109.374,280.556,109.767,281.287,110.292Zm-11.881,8.342c-0.259.43,0.384,1.257,0.6,1.507,0.605,0.713,2.062,1.539,4.483,1.661,0.832,0.041,1.462-.071,2.29.024a9.562,9.562,0,0,1,3.671,1.34c1.23,0.731,2.46,2.067,2.674,1.908,0.258-.192-0.706-1.828-1.167-2.551a4.808,4.808,0,0,0-2.477-2.307,5.7,5.7,0,0,0-2.161.024c-1.513.048-2.564-.753-4.294-1.289S269.728,118.1,269.406,118.634ZM290.634,15.485c11.328,6.727,28.545,20.549,34.647,41.349-0.084,7.692-.791,13.753-6.408,17.057-0.085-.293-0.169-0.585-0.254-0.877,2.988-16.5-10.833-27.2-20.008-32.259,1.772,8.857,5.726,49.176,3.638,54.088-5.114,12.032-21.414,11.147-28.151-.442-2.541-3.841-2.87-9.417-3.192-13.34,6.559-13.186,16.735-9.82,25.687,1.153l0.616-.177Q293.922,48.763,290.634,15.485ZM390.085,138.2c7.425,8.7,17.693,24.863,16.838,43.545-2.244,6.242-4.538,10.978-10.1,12.072l0.039-.787c7.124-12.592-1.231-25.239-7.354-31.974-1.045,7.72-9.185,41.692-12.293,45.1-7.611,8.347-20.78,2.988-23.051-8.371-1.006-3.852.3-8.488,1.142-11.776,9.127-8.876,16.554-3.238,20.823,8.248l0.557,0.031ZM355.158,96.673l0.948,0.356c0.367,3.468,1.951,6.62,2.842,9.618,1.8,6.066,2.335,12.13,4.105,18.168,0.775,2.645,3.258,8.433,1.263,11.755-1.128,4.44-10.449,6.347-12,1.069-2.18-3.942,3.363-7.882,5.684-8.549,1.511-.434,2.383.5,3.158-0.713-1.85-2.876-3.042-10.6-4.105-14.249-0.534-1.837-.231-3.757-1.579-4.631-3.472,3.569-9.516,4.25-14.21,6.412,1.352,7.852,3.676,16.4,2.842,25.292-1.156,1.007-2.3,2.626-3.789,3.206a7.058,7.058,0,0,1-9.789-6.055c1.072-1.564,1.305-3.2,3.157-3.919,1.739-1.62,5.18-1,7.263-.356-0.824-9.658-3.562-18.8-4.736-27.43C341.259,104.5,352.309,100.91,355.158,96.673ZM220.592,8l-1.191.443c-0.461,4.316-2.454,8.24-3.573,11.974-2.264,7.551-2.935,15.1-5.161,22.617-0.974,3.292-4.1,10.5-1.588,14.634,1.418,5.527,13.136,7.9,15.086,1.33,2.741-4.907-4.228-9.813-7.146-10.643-1.9-.54-3,0.624-3.97-0.887,2.327-3.58,3.825-13.191,5.161-17.739,0.672-2.287.29-4.677,1.985-5.765,4.365,4.443,11.963,5.29,17.864,7.982-1.7,9.774-4.621,20.418-3.573,31.486,1.454,1.253,2.891,3.269,4.764,3.991a8.871,8.871,0,0,0,12.306-7.539c-1.348-1.947-1.641-3.983-3.969-4.878-2.186-2.017-6.512-1.24-9.131-.443,1.037-12.023,4.478-23.4,5.955-34.147C238.065,17.737,224.174,13.273,220.592,8ZM391.06,28.691c-15.778.82-24.634,6.755-41.793,7.626l2.322,2.542a48.766,48.766,0,0,0,30.958-1.907v1.271l1.548,4.448h-1.548c-8.984,4.061-20.831,4.587-32.506,3.177l3.87,3.813c11.824,4.124,21,3.476,32.506-1.271q2.322,16.838,4.643,33.68c-6.9-2.85-18.9-2.911-22.444,2.542-2.088,1.721-2.7,3.088-3.1,6.355,2.9,3.859,3.821,6.436,9.287,8.261C417.734,110.54,395.074,49.338,391.06,28.691Z"/>
  <path id="Front_fingers" data-name="Front fingers" class="cls-1" d="M83.743,26.72c2.286-.84,6.391-0.084,11.846,3.941a39.381,39.381,0,0,1,12.833,16.75c7.924,20.353,4.638,49.21,3.949,59.116-0.767,11.025,2.886,57.309,11.845,86.7,4.97,16.3,21.21,33.272,41.46,60.1,12.843,17.014,30.663,29.011,46.4,32.514,7.056,1.57,9.537,2,13.82,1.97a19.159,19.159,0,0,0-.987-8.867c3.876,11.329-12.1-31.284-34.55-62.072-10.386-14.245-48.864-49.7-46.4-69.955,0.947-7.771,3.637-13.05,6.91-16.749,6.563-7.418,16.774-9.578,23.692-9.853,19.905-.791,33.5,14.327,47.382,30.543,20,23.366,23.462,39.777,35.537,56.161,17.017,23.088,52.275,55.476,65.151,64.043,9.013,6,36.638,22.6,44.422,40.4,63.5,145.187,5.923,113.988-34.268,181.539-9.762-12.063-21.365-50.663-41.742-68.233-35.51-30.619-77.937-47.667-104.637-63.057-17.462-10.066-22.846-13.312-50.344-43.352C109.29,289.114,83.88,253.07,76.833,214.907,65.2,151.909,64.174,94.153,64,96.674c0.665-9.6,3.886-13.091,4.936-22.661,1.5-13.7,1.935-17.894,3.949-31.529C73.379,39.135,78.5,28.645,83.743,26.72Z"/>
</svg>
