<svg id="Hand" xmlns="http://www.w3.org/2000/svg" width="500" height="500" viewBox="0 0 500 500">
  <defs>
    <style>
      .cls-1 {
        fill: #00c6c2;
      }

      .cls-1, .cls-2 {
        fill-rule: evenodd;
      }

      .cls-2 {
        fill: #ecfdfc;
      }
    </style>
  </defs>
  <path id="Back_fingers" data-name="Back fingers" class="cls-1" d="M147,40a15.4,15.4,0,0,0-15,5c-3.507,4.437-2.13,9.377-2.748,15.764C128.37,69.871,123.881,73.493,120,82c-2.848,6.243-5.2,25.866-4,46,1.114,18.625,3.968,34.769,8,48,3.632,11.917,5.469,22.433,11,32,5.239,9.063,14.165,17.365,18,22,7.367,8.9,16.877,24.818,28,34,15.711,12.97,33.112,18.045,39,19-0.405-8.219-13.025-31.148-27-54-7.086-11.587-32.323-40.868-35-44-4.514-5.28-17.526-18.394-18-35-0.28-9.813,2.163-16.226,5-20,4.136-5.5,8.313-6.536,13-11,1.17-7.625,2.248-11.6,3-21a185.837,185.837,0,0,1,2-23c0.359-2.542,1.169-10.667-1-18a27.755,27.755,0,0,0-6-11A20.614,20.614,0,0,0,147,40Zm63,31a14.041,14.041,0,0,0-7-2c-1.878.016-5.5,0.477-8,3-3.563,3.6-2.524,9.128-2,17,0.533,8.016.038,16.179-1,19a50.323,50.323,0,0,0-3,11c18.8,9.564,13.976,9.542,23,16,5.089,3.642,8.179,11.583,10,11,0.461-6.735.6-8.42,0-19-0.729-12.758-1.021-26.385.347-32.709A20.935,20.935,0,0,0,222,83C220.7,79.375,217.327,74.915,210,71Zm43,29a10.06,10.06,0,0,0-7,4c-2.292,3.338-1.122,7.038-1,12a37.994,37.994,0,0,1-1,9c-1.186,5.363-3.667,9.662-5,14a99.734,99.734,0,0,0-2,11c-0.8,5.514-.753,4.994-1,14,4.545,8.19,5.65,12.174,11,20,4.822,7.053,7.272,14.142,11,20,2.39-6.348,2.882-4.135,3.985-11.357,1.445-9.459.507-18.25,3.015-28.643,0.6-2.489,1.408-4.509,2-7,1.8-7.569,1.643-13.754,2-22a136.426,136.426,0,0,0-.542-17.877c-0.35-3.512-1.107-8.983-5.458-13.123C260.467,101.589,256.874,99.517,253,100Z"/>
  <path id="Earth" class="cls-2" d="M194.559,135.976c0.327,0.794,1.554.593,2.162,1.445,0.619,0.868.039,1.782,0.66,2.568,0.659,0.834,2.045.75,2.98,0.681,2.805-.207,4.492-0.316,4.807-1.1,0.35-.875-0.84-1.74-0.824-3.14,0-.415.372-1.467,0.095-1.692-0.5-.408-2.051,1.224-3.65.9a2.944,2.944,0,0,1-1.614-.954c-0.561-.659-0.52-1.711-1.151-2.02a2.236,2.236,0,0,0-2.048.632C195.153,133.916,194.213,135.135,194.559,135.976Zm17.623-1.479c0.128,0.556.844,1.314,2.441,1.848a15.752,15.752,0,0,0,3.41.438c1.849,0.266,2.322,1.255,4.187,1.359,1,0.056,1.82-.116,2.156.38,0.236,0.348.1,1.111-.559,2.266-0.47.826-.925,1.287-0.8,1.454,0.2,0.271,1.615-.878,3.087-0.689,1.563,0.2,2.035,1.5,3.671,1.878,0.648,0.149,2.353.368,3.162-.687a2.977,2.977,0,0,0-.728-3.749c-0.979-.773-2.551-0.407-2.641-0.755-0.071-.275.774-0.823,1.606-1.166a1.369,1.369,0,0,0,.905-0.533c0.141-.506-0.8-1.37-1.843-1.742-1.269-.454-2.06.081-3.207-0.175-1.33-.3-1.817-1.231-2.959-1.758-1.308-.6-2.138-0.312-3.513-0.74a14.963,14.963,0,0,0-3.261-1.16,4.949,4.949,0,0,0-3.7.85C213.211,132.117,211.9,133.26,212.182,134.5Zm8.01-16.885c-0.6.934-.308,2.012-0.506,3.511a3.624,3.624,0,0,0,.237,2.537,2.757,2.757,0,0,0,1.095.982c1.663,0.89,3.3.177,5.22,0.237a14.392,14.392,0,0,1,5.22,2.106,39.6,39.6,0,0,1,3.915,3.127,32.234,32.234,0,0,0,4.842,2.861c2.917,1.45,5.477,1.715,8.284,2.84,0.571,0.229,1.791.726,2.3,0.231,0.607-.594-0.145-2.309-0.514-3.037a12.418,12.418,0,0,0-1.873-2.562c-1.244-1.484-2.178-2.922-1.755-3.551,0.325-.483,1.4-0.235,1.529-0.6,0.221-.634-2.8-1.855-2.793-3.494,0-.936,1.159-1.731.926-2.133-0.264-.455-1.838.286-2.624-0.379-0.683-.576-0.211-1.566-0.872-2.122-0.788-.662-2.182.225-3.423-0.248a5.555,5.555,0,0,1-1.7-1.486c-1.724-1.442-4.778-.846-6.254-1.207-0.643-.157-3.1-1.611-5.025-1.289-1.265.212-2.734,1.457-3.281,1.741C221.744,116.394,220.831,116.611,220.192,117.612Zm14.057,101.744c-0.166-.405,2.313-1.951,4.772-2.985,3.867-1.624,7.345-1.79,12.77-1.621a52.846,52.846,0,0,0,9-.083,28.741,28.741,0,0,0,8.016-2.06c2.023-1.2,3.613-2.83,5.284-2.309,1.01,0.315,1.865,1.354,1.671,1.993-0.271.885-3.188,0.653-5.022,1.428-2.033.86-2.531,2.09-4.516,3.056-2.82,1.372-5.045,1.438-6.3,1.064s-2.244-1.5-3.936-1.632a9.617,9.617,0,0,0-4.048,1.344c-1.274.72-1.967,1.459-2.889,1.4-1.805-.114-2.431-2.389-4.323-2.89-0.7-.186-2.72.2-4.961,1.5a13.833,13.833,0,0,1-3.2,1.552C235.7,219.364,234.362,219.632,234.249,219.356Zm19.768-100.674a1.726,1.726,0,0,0-.733,1.847,2.322,2.322,0,0,0,1.421,1.24c1.3,0.687,2.067,1.161,2.653.9a1.925,1.925,0,0,0,.953-1.615,2.317,2.317,0,0,0-1.038-2.019,3.958,3.958,0,0,0-1.7-.436A2.391,2.391,0,0,0,254.017,118.682Zm-24.091-10.013a1.079,1.079,0,0,0,.165.9c0.688,1.089,3.1,1.349,3.975.216a1.644,1.644,0,0,0,.094-2c-0.359-.332-0.991-0.091-2.077.113C230.87,108.122,230.125,108.152,229.926,108.669Zm52.192,0.152a16.383,16.383,0,0,0,3.747,1.879c0.743,0.306,1.59.665,2.133,0.926a25.552,25.552,0,0,0,2.68,1.417c1.521,0.54,2.567.408,3.718,1.36,0.682,0.565,1.4,1.488,1.152,2.021-0.42.9-3.316-.006-3.606,0.717-0.2.5,0.877,1.749,2.189,1.964,1.118,0.183,1.774-.508,2.856-0.479,1.659,0.044,3.078,1.385,2.94,1.727-0.091.223-1.236,0-2.077,0.113-1.381.188-2.58,0.8-2.539,1.179,0.044,0.42,1.56.459,1.614,0.954,0.042,0.39-.885.581-0.982,1.095-0.184.974,3.946,3.1,4.9,3.9a37.927,37.927,0,0,1,3.916,5,5.5,5.5,0,0,1,1.236,3.579c-0.07,1.04-.542,2.478-1.416,2.681-1.06.245-3.13-2.833-3.832-3.438-1.036-.892-4.11-2.273-5.445-4.391a3.3,3.3,0,0,1-.661-2.568,2.969,2.969,0,0,0,.463-1.067c-0.058-.87-1.708-1.639-3.228-1.908-0.351-.062-2.457.082-3.443-0.583a3.974,3.974,0,0,1-1.4-2.279,12.139,12.139,0,0,0-1.755-3.55c-1.8-1.955-4.355-1.219-5.908-3.325-0.516-.7-0.561-1.314-1.151-2.021a14.151,14.151,0,0,0-1.642-1.473,11.7,11.7,0,0,1-1.031-.986c-0.676-.813-0.765-1.536-1.423-2.216-0.968-1-2.1-.755-3.841-1.224-1.564-.42-3.032-1.33-4.974-1.732-0.694-.144-1.855-0.314-2.077.112-0.235.452,0.758,1.355,0.6,1.53a4.132,4.132,0,0,1-1.263-.467c-1.314-.458-2.854-0.178-2.918.174-0.075.411,1.784,1.417,3.718,1.36,1.074-.032,1.568-0.464,2.641-0.484,1.752-.033,3.01,1.284,4.193,1.675,0.583,0.193,3.065.216,4.238,1.332a4.3,4.3,0,0,1,1.151,2.021c0.754,0.324,1.669.754,1.614,0.954-0.062.219-1.3,0.175-2.424-.238a5.232,5.232,0,0,1-2.362-1.585,2.686,2.686,0,0,0-1.094-.982,1.406,1.406,0,0,0-1.549.084c-0.165.37,0.747,0.922,0.6,1.53a0.954,0.954,0,0,1-.491.547c-0.983.537-2.56-.517-2.935-0.761-2.941-1.91-7.629-3.045-8.74-3.292-2.018-.447-4.371-0.386-6.833-1.191-2.087-.682-6.023-2.4-5.965-4.363,0.018-.611.655-1.233,0.435-1.586-0.373-.595-2.813.355-4.751-0.059-1.128-.241-2.592-0.863-2.63-1.623-0.032-.28.595-0.692,0.595-1q-1.877.035-3.766,0.138-5.249.285-10.34,1.072c0.442,0.908,3.172-.869,3.676.849,0.121,0.415-.527,1.01-1.473,1.643-1.8,1.2-3.678.865-5.682,0.83-1.975-.036-4.421.756-6.735,1.129-0.648.1-3.016,0.487-3.391,1.805-0.222.778,0.516,1.678,0.232,1.982-0.444.475-2.753-1.443-5.02-1.5-2.245-.058-3.426,1.479-6,2.724-2.131,1.029-3.953,1.083-6.1,2.451a41.42,41.42,0,0,0-3.595,2.97c-1.889,1.484-3.57,2.054-5.541,3.427a25.411,25.411,0,0,0-5.457,4.984,19.506,19.506,0,0,0-2.86,4.843c-0.947,2.576-1,4.821-2.805,5.881-1.244.729-2.907,0.662-3.114,0.169s1.053-1.5.953-1.614c-0.137-.16-2.4,1.869-3.577,1.236-0.6-.325-0.488-1.1-1.123-1.5-0.953-.6-2.323.435-2.6,0.141-0.35-.377.106-0.343,0.04-0.693A104.555,104.555,0,0,0,278,302.066c-0.207-.722.924-2.824,0.893-3.487,0.023-2-.951-2.653-0.773-4.646,0.238-2.668,2.521-4.558,3.295-6.429a23.288,23.288,0,0,0,.761-5.765c0.13-3.524-.362-6.226-0.919-6.726-2.216-1.987-6.64.5-10.45-.669-3.7-1.133-4.306-4.089-7.624-6.161-3.335-2.082-6.039-2.112-7.551-4.8-0.533-.948-0.912-3.858-0.395-7.27,0.288-1.9.771-4.171,1.219-6.316,0.428-2.048.871-4.437-.367-6.751-0.776-1.45-2.358-3.15-3.8-2.919-1.167.188-1.56,1.656-2.483,2.219-2.633,1.6-6.6-1.72-11.675-4.053-5.246-2.411-10.07-2.027-13.232-3.968a5.529,5.529,0,0,0-5.739-.209c-3.992,1.734-9.65-.177-12.611-1.919a17.486,17.486,0,0,1-6.067-6.441c-1.98-3.143-4.027-4.681-5.643-8.027a19.131,19.131,0,0,0-5.606-7.341c-0.775-.569-3.064-2.119-3.727-1.526-0.359.32-.171,1.206,0.406,2.536a18.554,18.554,0,0,0,3.654,5.109c1.268,1.421,3.477,4.241,2.875,5-0.418.526-2.049-.114-2.624-0.379-3.335-1.533-4.724-5.228-5.011-5.977a117.292,117.292,0,0,0-5.869-12.181c-0.925-1.674-4.077-5.044-4.6-8.083-1.174-6.77,4.386-10.23,3.221-17.363-0.4-2.464-1.651-4.023-2.443-6.638a29.315,29.315,0,0,1-1.405-6.694c0.054-1.694,1.511-5.363.586-8.365-0.334-1.085-1.423-3.778-3.888-4.477a5.294,5.294,0,0,0-3.115.17,8.177,8.177,0,0,0-2.02,1.151,14.343,14.343,0,0,1-5.135,1.321c-2.6.249-4.315-.262-4.728-0.785a8.186,8.186,0,0,1-.632-2.049,1.216,1.216,0,0,1-.057-1.038,1.105,1.105,0,0,1,1.067.463c0.5,0.544.326,1.1,0.6,1.529,1,1.527,5.512.644,8.249-1.49,1.111-.866,1.555-1.575,1.445-2.162-0.123-.653-0.883-0.833-1.123-1.5a3.723,3.723,0,0,1,.9-2.653c1.329-1.941,2.711-2.745,3.493-2.794a3.656,3.656,0,0,0,1.557-.085,2.42,2.42,0,0,0,1.283-1.5c0.306-1.022-.438-2.021.049-2.738a1.791,1.791,0,0,1,1.529-.6c0.638,0.039,1.209.619,1.586,0.435s0.346-1.3.434-1.586c0.627-2.013,4.055-3.364,5.6-2.388,1.077,0.682.832,2.381,1.755,3.551a7.836,7.836,0,0,0,3.746,1.879c1.764,0.452,2.988.251,4.729,0.785s2.512,1.394,4.266,1.851a13.534,13.534,0,0,0,3.662.322,33.2,33.2,0,0,0,4.153-.226,16.093,16.093,0,0,0,5.055-2.236c-0.253-.329-0.4.405-0.552-1.133-0.09-.928,1.138-1.739.925-2.134-0.244-.454-2,0.306-2.623-0.378a1.68,1.68,0,0,1-.085-1.558c0.523-1.441,2.555-1.925,2.483-2.218-0.038-.154-0.653-0.251-1.825-0.051-1.372.234-3.31,1.32-5,1.114-1.072-.13-2.4-0.7-2.58-1.594-0.228-1.13,1.412-2.663,2.973-2.766,0.928-.061,1.194.429,2.1,0.407,1.434-.035,1.822-1.258,3.059-1.208,1.444,0.058,2.082,1.85,3.775,2.4,0.526,0.17,1.908.507,2.679-.232,0.611-.587.72-1.727,0.323-2.015-0.437-.316-1.411.522-1.732,0.218-0.264-.25.27-1.018,0.089-1.691-0.208-.776-1.221-1.183-1.122-1.5,0.126-.41,1.831-0.1,2.048-0.632,0.161-.4-0.645-0.889-0.6-1.529,0.047-.728,1-1.295,1.992-1.671,0.9-.341,2.335-0.62,2.6-0.141,0.332,0.612-1.725,1.855-1.879,3.748a11.479,11.479,0,0,0,.688,3.087,3.976,3.976,0,0,1,.113,2.078c-0.876,1.492-4.391.424-5.107,1.84a3.8,3.8,0,0,0,.085,1.557c-0.046,1.457-1.324,2.264-1.051,3.5a1.256,1.256,0,0,0,.781,1.132,6.713,6.713,0,0,1,3.611-.643c0.7,0.088,2.424.447,2.68,1.416,0.231,0.874-.95,1.562-0.9,2.653,0.052,1.071,1.131,1.644,2.246,3,1.017,1.24,1.372,2.131,1.179,2.54-0.412.873-2.6,1.125-3.634,0.2-1.2-1.076-.2-3.462-1.264-4.1a1.6,1.6,0,0,0-2.048.632c-0.173.627,1,1.106,1.151,2.021,0.277,1.647-2.5,3.345-3.352,5.39a5.454,5.454,0,0,0-.157,4.413c0.691,1.285,2.553,2.333,6.263,2.547,2.748,0.158,4.644-.453,5.767.728,1.05,1.105.334,3.105,1.236,3.579,0.871,0.458,2.665-.766,3.521-2.275a5.7,5.7,0,0,0,.265-4.7c-0.677-1.842-1.976-2.412-2.822-4.013-1.01-1.915-1.481-4.676-.31-5.712,0.389-.344,1.486-0.561,3.115-0.17,1.928,0.464,3.079,1.895,4.785,1.824,1.9-.08,2.668-1.916,4.587-1.812a4.613,4.613,0,0,1,2.681,1.417c1.976,1.591,4.944,2.59,8.5,3.183,0.928,0.155,3.253.481,3.747,1.88a2.743,2.743,0,0,1-.406,2.1,14.351,14.351,0,0,1-1.907,3.229c-2.1,1.826-4.469.652-6.463,2.508a5.546,5.546,0,0,0-1.561,3.136c-0.154.778-.186,1.414,0.085,1.558,0.672,0.359,2.5-2.705,4.04-2.3,1.134,0.3,1.1,2.121,2.353,2.649,1.638,0.693,3.8-1.527,4.508-.938,0.312,0.258.143,1.144-.378,2.624-0.762,2.169-1.364,3.275-1.907,3.229-0.661-.056-0.725-1.689-1.67-1.992-0.509-.164-1.609.39-3.03,1.727a6.08,6.08,0,0,0-1.935,2.709c-0.088,1.463,1.353,2.139,1.235,3.579-0.093,1.149-1.134,1.637-2.2,2.956a9.338,9.338,0,0,0-1.639,2.982,12.365,12.365,0,0,0-.237,5.221,17.391,17.391,0,0,1-.265,4.7c-0.9,3.4-4.311,5.571-4.193,9.082a6.135,6.135,0,0,0,1.236,3.579c0.918,1.112,2.706,1.489,3.285,2.946a2.376,2.376,0,0,1-.378,2.625c-0.936.629-2.987-.583-4.266-1.852-1.184-1.173-1.429-2.613-2.794-3.494-1.126-.726-3.04-0.418-5.738-0.209-1.472.115-2.864,0.226-3.578,1.236-0.615.87-.181,1.964-0.9,2.653-0.787.757-2.123,0.156-4.153,0.226a8.22,8.22,0,0,0-3.087.689,6.41,6.41,0,0,0-2.917,3.8c-0.555,1.926.262,2.769-.265,4.7-0.471,1.728-1.487,2-1.879,3.748a6.934,6.934,0,0,0,2.444,6.638c1.507,1.174,3.28.751,5.795,1.248,2.247,0.443,3.578,1.008,5.061.239a9.466,9.466,0,0,0,2.585-3.259,6.8,6.8,0,0,1,1.939-2.626c0.981-.735,2.46-1.3,3.083-0.772,0.578,0.493.163,1.885-.294,4.182-0.372,1.87-.505,3.15.226,4.155a3.737,3.737,0,0,0,3.2,1.388c1.823-.138,2.415-1.776,4.068-1.783a4.363,4.363,0,0,1,3.831,3.437c0.217,1.3-.59,1.876-0.349,3.144a4.842,4.842,0,0,0,4.35,3.41c1.938,0.09,2.726-1.444,4.588-1.812,1.69-.334,3.943.765,5.191-0.282a3.243,3.243,0,0,0,.926-2.134c0.538-3.277,3.978-6.087,5.343-7.061,3.013-2.149,8.055-2.131,9.751-2.614,3.178-.9,4.91-2.289,7.7-1.981,3.429,0.379,4.822,2.462,7.985,3.212a23.176,23.176,0,0,0,8.306-.451c2.67-.578,5.172-1.5,6.229-0.339,1.077,1.18-.363,3.453.774,4.645,0.454,0.477,1.685.749,3.662,0.322a13.327,13.327,0,0,0,5.078-2.359c1.594-1.195,2.3-2.384,3.984-3.342,1.767-1.006,5.566-2.412,8.825-.479a5.681,5.681,0,0,1,2.793,3.494c0.39,2.132-1.242,3.548-2.776,6.4-2.24,4.168-2.713,7.306-1.568,9.461,0.475,0.894,1.312,1.341,1.7,2.511,0.546,1.654-.364,4.607-3.685,8.473-1.45,1.688-3.491,3.468-4.462,4.47a57.02,57.02,0,0,0-3.9,4.9,67.669,67.669,0,0,0-3.855,5.717c-1.937,3.517-2.637,6.284-5.219,9.359a33.705,33.705,0,0,1-5.975,5.013c-1.925,1.3-4.7,2.589-7.042,4.549-2.97,2.486-5.033,5.4-5.372,6.542-0.592,1.592-.659,1.96-0.5,2.222a104.686,104.686,0,0,0,52.049-134.36c-0.491,1.062,1.192,5.148,1,4.59,0.582,1.679.849,3.337,1.353,5.144,0.58,2.074.279,4.145,0.366,6.732a2.627,2.627,0,0,1-.648,2.184c-0.547.416-1.647,0.379-3.4-.429a11.992,11.992,0,0,1-2.547-1.7c-0.716-.682-1.669-1.591-2-1.967a26.471,26.471,0,0,1-3.077-3.9c-0.5-1.287-.258-3.986-1.676-5.433a4.768,4.768,0,0,0-1.588-.988,12.283,12.283,0,0,1-4.8-3.729c-0.894-1.456-.521-2.392-1.286-3.919-0.873-1.742-2.316-2.311-3-4.441a12.259,12.259,0,0,1-.311-2.9,14.7,14.7,0,0,0-1.55-5.525c-0.549-1-1.236-1.715-1.805-2.579a16.383,16.383,0,0,1-2.255-4.788c-0.137-.8.165-3.217-0.725-4.871-0.662-1.231-1.482-1.49-2.291-2.638a5.78,5.78,0,0,1-1.264-4.463c0.2-.975.8-2.166,1.444-2.161,1.026,0.006,1.628,3.09,2.246,3,0.408-.058.195-1.476,0.793-2.077,0.681-.687,1.156-0.239.8-0.563a104.758,104.758,0,0,0-30.565-19.432C280.68,107.889,281.377,108.288,282.118,108.821Zm-12.036,8.466c-0.263.437,0.389,1.276,0.6,1.53,0.612,0.724,2.089,1.563,4.541,1.686,0.843,0.042,1.482-.072,2.32.024a9.673,9.673,0,0,1,3.719,1.361c1.246,0.742,2.492,2.1,2.709,1.936,0.261-.195-0.715-1.855-1.183-2.589a4.868,4.868,0,0,0-2.508-2.341,5.773,5.773,0,0,0-2.19.024c-1.533.048-2.6-.764-4.35-1.309S270.408,116.745,270.082,117.287Z"/>
  <path id="Front_fingers" data-name="Front fingers" class="cls-1" d="M82,24c2.316-.853,6.474-0.085,12,4a39.959,39.959,0,0,1,13,17c8.027,20.657,4.7,49.945,4,60-0.777,11.189,2.923,58.166,12,88,5.034,16.547,21.485,33.769,42,61,13.01,17.269,31.062,29.445,47,33,7.148,1.594,9.661,2.028,14,2a19.486,19.486,0,0,0-1-9c3.926,11.5-12.259-31.751-35-63-10.522-14.458-49.5-50.443-47-71,0.959-7.888,3.684-13.245,7-17,6.648-7.528,16.993-9.721,24-10,20.165-.8,33.937,14.541,48,31,20.263,23.715,23.768,40.371,36,57,17.238,23.433,52.955,56.305,66,65,9.129,6.085,37.115,22.937,45,41,64.326,147.357,6,115.692-34.715,184.253C324.4,485.01,312.642,445.833,292,428c-35.973-31.077-78.289-49.589-106-64-32-16.641-38.237-25.393-51-44-22.742-33.157-52.861-66.267-60-105C63.215,151.06,62.177,92.441,62,95c0.674-9.748,3.937-13.287,5-23,1.522-13.9,1.96-18.161,4-32C71.5,36.6,76.692,25.954,82,24Z"/>
  <path id="Note" class="cls-2" d="M291.586,12.6c11.476,6.827,28.917,20.856,35.1,41.967-0.085,7.807-.8,13.958-6.492,17.312q-0.127-.445-0.257-0.891c3.027-16.747-10.973-27.6-20.268-32.741,1.8,8.989,5.8,49.911,3.685,54.9-5.181,12.212-21.693,11.314-28.518-.449-2.574-3.9-2.908-9.557-3.234-13.539,6.645-13.383,16.954-9.967,26.023,1.17l0.624-.18Q294.917,46.373,291.586,12.6Z"/>
  <path id="Note-2" data-name="Note" class="cls-2" d="M392.334,137.144c7.522,8.834,17.923,25.235,17.057,44.2-2.273,6.336-4.6,11.143-10.229,12.253q0.021-.4.04-0.8c7.216-12.781-1.247-25.617-7.45-32.452-1.058,7.835-9.305,42.315-12.453,45.774-7.71,8.472-21.051,3.033-23.352-8.5-1.019-3.91.3-8.615,1.158-11.952,9.246-9.009,16.769-3.287,21.093,8.372l0.565,0.031Q385.548,165.61,392.334,137.144Z"/>
  <path id="croche" class="cls-2" d="M356.952,95l0.959,0.362c0.372,3.519,1.977,6.718,2.88,9.762,1.824,6.156,2.365,12.311,4.158,18.439,0.786,2.685,3.3,8.559,1.28,11.931-1.143,4.506-10.586,6.441-12.156,1.085-2.209-4,3.406-8,5.758-8.677,1.53-.441,2.414.509,3.2-0.723-1.875-2.919-3.082-10.755-4.159-14.462-0.541-1.865-.234-3.813-1.6-4.7-3.518,3.623-9.64,4.314-14.4,6.508,1.37,7.969,3.724,16.647,2.879,25.671-1.171,1.021-2.329,2.664-3.838,3.254A7.151,7.151,0,0,1,332,137.3c1.086-1.587,1.323-3.247,3.2-3.977,1.761-1.644,5.247-1.011,7.358-.361-0.836-9.8-3.609-19.078-4.8-27.84C342.872,102.938,354.065,99.3,356.952,95Z"/>
  <path id="croche-2" data-name="croche" class="cls-2" d="M220.632,5l-1.206.45c-0.468,4.381-2.486,8.363-3.62,12.153-2.293,7.664-2.974,15.326-5.228,22.955-0.987,3.342-4.149,10.655-1.608,14.853,1.436,5.609,13.307,8.018,15.281,1.35,2.777-4.98-4.282-9.959-7.238-10.8-1.924-.548-3.035.634-4.022-0.9,2.357-3.634,3.874-13.388,5.228-18,0.681-2.321.294-4.747,2.011-5.851,4.422,4.509,12.119,5.369,18.1,8.1-1.722,9.92-4.682,20.724-3.62,31.957,1.473,1.272,2.929,3.318,4.826,4.051A8.987,8.987,0,0,0,252,57.659c-1.366-1.976-1.663-4.043-4.022-4.951-2.213-2.047-6.6-1.259-9.249-.45,1.05-12.2,4.536-23.749,6.032-34.657C238.333,14.883,224.261,10.352,220.632,5Z"/>
  <path id="note_2ble" data-name="note 2ble" class="cls-2" d="M393.322,26c-15.985.832-24.955,6.856-42.338,7.74l2.352,2.58A49.314,49.314,0,0,0,384.7,34.385v1.29q0.785,2.257,1.568,4.515H384.7c-9.1,4.122-21.1,4.656-32.929,3.225l3.92,3.87c11.978,4.185,21.274,3.528,32.929-1.29q2.352,17.09,4.7,34.184c-6.987-2.893-19.149-2.955-22.738,2.58-2.115,1.747-2.733,3.134-3.136,6.45,2.934,3.916,3.871,6.532,9.409,8.385C420.343,109.073,397.387,46.956,393.322,26Z"/>
  <path class="cls-2" d="M-83-422"/>
</svg>
