<?xml version="1.0" standalone="no"?>
<!DOCTYPE svg PUBLIC "-//W3C//DTD SVG 20010904//EN"
 "http://www.w3.org/TR/2001/REC-SVG-20010904/DTD/svg10.dtd">
<svg version="1.0" xmlns="http://www.w3.org/2000/svg"
 width="700.000000pt" height="700.000000pt" viewBox="0 0 700.000000 700.000000"
 preserveAspectRatio="xMidYMid meet">
<metadata>
Created by potrace 1.11, written by Peter Selinger 2001-2013
</metadata>
<g transform="translate(0.000000,700.000000) scale(0.100000,-0.100000)"
fill="#000000" stroke="none">
<path d="M3085 6620 c-3 -5 -4 -10 -1 -10 5 0 -4 -31 -33 -111 -11 -31 -23
-72 -26 -90 -8 -45 -51 -231 -69 -294 -14 -52 -13 -104 5 -136 26 -50 139 -69
172 -28 28 35 32 68 10 97 -27 36 -63 60 -97 66 -16 3 -30 7 -32 8 -2 2 5 31
15 63 10 33 27 98 37 145 16 79 31 110 44 91 8 -13 61 -38 140 -65 40 -14 75
-28 77 -30 2 -2 -1 -23 -6 -47 -5 -24 -12 -66 -16 -93 -3 -27 -9 -54 -12 -58
-3 -5 -7 -52 -9 -105 l-3 -96 33 -33 c55 -55 137 -44 172 22 41 75 -40 148
-134 122 -6 -2 -11 0 -12 5 -4 13 11 109 41 260 16 81 29 154 29 161 0 7 -21
21 -47 31 -80 30 -207 92 -232 114 -27 23 -37 26 -46 11z"/>
<path d="M4014 6503 c3 -21 8 -72 11 -113 3 -41 8 -88 10 -105 2 -16 6 -59 10
-95 3 -36 8 -83 10 -105 2 -22 7 -67 10 -100 3 -33 8 -78 10 -100 4 -34 16
-170 17 -185 1 -21 -8 -17 -52 24 -92 86 -165 99 -229 41 -34 -31 -66 -86 -56
-97 1 -1 6 -25 9 -52 17 -125 109 -209 233 -210 54 -1 66 3 100 30 68 54 75
79 68 234 -8 180 -15 264 -35 425 -16 124 -18 121 38 84 136 -93 205 -199 206
-319 1 -39 4 -70 7 -70 17 0 58 63 66 102 17 78 9 137 -31 219 -66 141 -188
279 -331 378 l-75 52 4 -38z"/>
<path d="M1315 6382 c-62 -38 -119 -149 -130 -252 -4 -36 -8 -67 -10 -70 -1
-3 -6 -34 -10 -70 -3 -36 -8 -78 -10 -95 -2 -16 -7 -59 -11 -94 -4 -35 -19
-107 -35 -160 -27 -92 -28 -102 -23 -256 3 -88 6 -176 8 -195 2 -19 7 -75 11
-125 7 -111 12 -165 19 -230 3 -27 8 -77 11 -110 7 -78 33 -292 46 -375 10
-65 56 -353 64 -400 3 -14 14 -59 24 -101 121 -457 433 -930 969 -1465 188
-187 308 -269 667 -451 72 -36 153 -78 180 -93 28 -15 97 -52 155 -83 357
-188 665 -398 822 -558 98 -101 173 -221 321 -517 72 -144 141 -274 153 -289
l20 -26 50 74 c99 149 209 269 405 438 237 206 324 332 345 498 12 95 8 224
-11 323 -24 130 -45 212 -92 355 -82 254 -248 663 -300 738 -41 60 -126 148
-188 198 -31 24 -69 54 -83 67 -15 13 -85 62 -155 109 -125 83 -128 86 -112
107 184 250 273 500 280 791 4 155 -4 222 -45 386 -19 74 -49 154 -50 133 0
-6 7 -30 15 -55 20 -60 25 -147 9 -160 -30 -25 -136 71 -148 134 -4 23 -14 38
-26 42 -26 8 -80 63 -80 81 0 8 -9 27 -20 42 -11 15 -23 41 -25 57 -10 60 -16
76 -45 122 -17 26 -30 59 -30 74 0 14 -11 43 -25 63 -28 42 -34 96 -10 96 8 0
15 -7 15 -15 0 -20 16 -19 24 1 8 20 -20 46 -125 120 -44 31 -76 49 -73 40 4
-12 0 -16 -16 -16 -33 0 -18 -25 16 -26 46 -1 54 -3 54 -14 0 -6 -3 -9 -7 -9
-5 1 -16 1 -27 0 -15 -1 -16 -4 -7 -15 9 -11 9 -15 -1 -18 -7 -3 6 -17 30 -33
23 -15 42 -30 42 -34 0 -3 12 -19 26 -35 28 -29 34 -70 15 -89 -9 -9 -17 -5
-34 13 -12 14 -39 38 -60 54 -31 23 -38 33 -34 53 5 26 -8 35 -64 47 -18 4
-31 18 -44 46 -12 27 -28 43 -49 51 -17 6 -50 35 -73 63 -36 44 -51 55 -103
70 -33 10 -64 24 -68 30 -14 23 -71 56 -103 60 -40 5 -76 -8 -108 -37 -18 -16
-23 -18 -18 -6 4 14 -1 16 -29 13 -24 -2 -41 3 -54 16 -12 12 -30 17 -52 16
-18 -2 -48 -4 -67 -5 -28 -1 -32 -3 -21 -16 10 -12 8 -16 -15 -25 -14 -5 -37
-10 -50 -10 -21 0 -23 3 -19 48 2 26 7 63 11 82 24 126 -32 230 -161 295 -56
28 -101 31 -151 11 -49 -21 -68 -56 -67 -124 0 -31 1 -115 2 -187 1 -108 -2
-141 -19 -194 -12 -35 -21 -69 -21 -75 0 -6 -16 -21 -34 -33 -31 -20 -42 -21
-105 -14 -92 9 -206 -13 -281 -55 -141 -80 -210 -260 -159 -413 18 -53 19 -62
6 -92 l-14 -34 -23 73 c-37 121 -32 247 14 344 21 44 83 107 142 144 46 29 49
35 59 99 3 22 7 47 10 55 5 19 15 116 20 205 5 84 16 202 21 230 3 11 5 58 5
105 1 153 -65 280 -175 337 -69 36 -174 10 -223 -54 -22 -28 -27 -47 -30 -111
-6 -107 -27 -182 -72 -260 -52 -90 -69 -133 -81 -206 -31 -185 -32 -386 -4
-676 10 -113 51 -301 109 -500 9 -30 18 -62 20 -70 18 -72 53 -166 81 -220 32
-63 61 -165 43 -154 -16 9 -107 149 -138 211 -36 72 -87 242 -107 363 -3 14
-9 48 -14 75 -5 28 -12 64 -14 80 -2 17 -7 49 -11 73 -10 63 -13 91 -20 162
-3 36 -8 74 -10 85 -17 86 -21 263 -12 630 10 374 -34 546 -173 686 -95 95
-169 125 -225 91z m1965 -1059 c-1 -21 -19 -35 -39 -28 -11 3 -21 10 -21 15 0
7 10 11 53 19 4 0 7 -2 7 -6z m525 -60 c14 -19 13 -21 -5 -16 -11 3 -25 11
-31 19 -15 19 -40 18 -33 -1 4 -9 0 -15 -9 -15 -11 0 -37 45 -37 65 0 11 104
-36 115 -52z m-540 -32 c22 -4 50 -13 62 -19 12 -7 30 -12 40 -12 11 0 24 -13
32 -31 12 -27 11 -38 -9 -100 -12 -38 -24 -69 -28 -69 -4 0 -32 18 -62 40 -72
53 -117 73 -152 68 -27 -4 -28 -3 -29 36 -1 23 -2 48 -3 56 -2 22 54 51 84 44
14 -3 43 -9 65 -13z m521 -31 c15 -6 41 -12 58 -14 16 -2 38 -14 48 -26 23
-29 17 -36 -14 -16 -13 8 -41 18 -63 21 -61 9 -75 15 -75 31 0 17 9 18 46 4z
m-868 -156 c27 -28 5 -33 -33 -8 -14 9 -22 20 -20 25 7 10 35 0 53 -17z m62
-77 c0 -14 5 -18 19 -14 21 5 53 -23 57 -50 2 -8 13 -26 25 -39 12 -13 19 -27
15 -31 -4 -5 -19 6 -33 22 -14 17 -50 56 -80 87 -31 32 -52 62 -48 68 10 16
45 -18 45 -43z m182 32 c11 -6 32 -13 46 -15 36 -7 50 -22 29 -30 -9 -3 -17
-10 -17 -16 0 -5 4 -7 9 -3 15 9 40 -23 34 -45 -6 -23 -39 -26 -66 -6 -10 8
-27 11 -39 8 -17 -4 -19 -2 -13 18 4 13 3 25 -4 29 -14 9 -22 71 -9 71 5 0 18
-5 30 -11z m65 -161 c27 -10 38 -10 53 0 34 21 42 15 35 -25 -3 -21 -8 -75
-11 -120 l-5 -82 46 -86 c25 -47 45 -90 45 -95 0 -24 -17 -6 -50 52 -19 34
-59 95 -87 135 -29 41 -53 81 -53 89 0 8 -11 32 -25 52 -32 47 -34 92 -3 92
12 0 37 -5 55 -12z m-553 -856 c75 -95 86 -125 34 -95 -32 18 -46 41 -96 148
-28 58 -26 57 62 -53z m1133 21 c2 -6 -11 -14 -29 -18 -18 -4 -45 -16 -60 -26
-32 -23 -44 -24 -52 -4 -3 10 1 18 12 21 9 3 33 14 52 24 37 21 71 22 77 3z
m113 -184 c56 -26 90 -29 162 -14 65 14 75 10 82 -29 3 -16 7 -31 10 -34 10
-10 95 20 113 40 42 47 103 64 149 42 47 -23 51 -53 13 -119 -35 -62 -40 -116
-14 -145 26 -28 3 -78 -75 -160 l-65 -70 -41 38 c-23 20 -76 68 -119 107 -43
38 -139 130 -212 204 -132 132 -134 135 -111 147 32 18 56 17 108 -7z"/>
<path d="M5247 6363 c-1 0 -18 -4 -37 -7 -19 -3 -46 -8 -60 -11 -14 -3 -36 -8
-50 -11 -14 -3 -49 -12 -79 -21 -61 -17 -59 -17 -126 -28 -69 -12 -67 -12 -99
-13 -24 -2 -27 -4 -16 -17 40 -48 288 -49 401 -1 11 5 18 -2 26 -27 l10 -34
-66 -21 c-36 -12 -86 -23 -111 -26 -54 -7 -184 -8 -222 -3 -68 10 -1 -46 77
-64 83 -19 206 -15 285 10 35 11 65 19 67 18 3 -4 17 -90 29 -180 2 -15 6 -46
9 -67 3 -22 7 -59 10 -82 3 -24 8 -56 11 -72 6 -25 4 -28 -12 -21 -29 11 -148
18 -189 11 -43 -8 -110 -66 -119 -102 -5 -19 0 -37 19 -66 69 -104 297 -119
369 -25 85 112 79 282 -25 701 -21 87 -39 160 -39 162 0 3 -60 1 -63 -3z"/>
<path d="M4835 5480 c-11 -18 -75 -54 -150 -85 -38 -16 -74 -32 -78 -35 -4 -4
-1 -40 7 -81 9 -41 18 -90 21 -109 3 -19 8 -42 10 -50 2 -8 7 -36 10 -62 l7
-48 -41 2 c-31 1 -47 -5 -66 -22 -68 -64 25 -156 110 -110 26 14 44 60 40 101
-2 13 -6 52 -10 87 -4 35 -10 75 -14 90 -4 15 -7 40 -7 56 1 27 6 32 63 52 35
13 73 30 85 38 12 9 26 16 30 16 5 0 15 -35 34 -125 4 -20 25 -97 31 -111 4
-10 -2 -14 -20 -14 -29 0 -83 -41 -92 -70 -6 -20 10 -59 29 -72 16 -11 62 -10
89 3 47 22 59 85 32 174 -9 28 -23 84 -31 125 -18 89 -62 241 -74 253 -4 5
-11 4 -15 -3z"/>
<path d="M3891 5316 c10 -9 109 -56 109 -51 0 5 -95 55 -106 55 -4 0 -5 -2 -3
-4z"/>
<path d="M5289 4928 c-1 -17 -3 -26 -34 -153 -15 -60 -28 -117 -30 -125 -2 -8
-17 -71 -33 -140 -17 -69 -38 -160 -48 -202 -10 -43 -22 -78 -26 -78 -4 0 -8
6 -8 13 0 25 -60 107 -92 127 -40 24 -69 25 -115 3 -48 -23 -69 -61 -72 -132
-3 -91 34 -162 104 -198 64 -34 141 -25 183 20 12 13 33 54 46 93 22 60 89
311 101 377 3 12 8 36 12 52 4 17 7 36 7 42 2 28 23 13 61 -43 73 -106 91
-202 57 -300 -16 -46 -16 -51 -3 -46 39 14 62 38 89 92 26 50 29 67 25 121 -9
140 -70 303 -163 432 -40 56 -59 70 -61 45z"/>
</g>
</svg>
