<svg version="1" xmlns="http://www.w3.org/2000/svg" width="666.667" height="666.667" viewBox="0 0 500.000000 500.000000"><path d="M219.6 6.2c-.2.7-1.1 3.4-2 5.9-1.9 5.2-2.2 6.6-4.2 16.4-.8 3.8-2.4 10.3-3.6 14.3-1.6 5.7-1.9 8.1-1.2 11 1.9 7.4 12.7 9.6 15.5 3.1.9-2.4.9-3.5 0-5.3-1.5-2.8-6.1-5.6-9.1-5.6-1.7 0-2-.4-1.5-1.8.5-.9 1.9-6 3.2-11.2 3.3-13.2 2.8-12.4 6-10.1 1.6 1 5.3 2.7 8.3 3.6 3 1 5.9 2.1 6.3 2.5.4.4.1 4.7-.7 9.6-.9 4.9-1.7 11.8-2 15.4-.3 5.9-.2 6.6 2.4 9.2 3.8 3.8 8.2 3.8 12.1-.1 3.5-3.6 3.6-5.2.5-8.8-2-2.3-3.2-2.8-6.6-2.7l-4.2.1.7-5.6c.4-3.1 1.3-8.3 2-11.6 1.2-5.2 1.9-8.8 3-15.5.1-.9-2.6-2.5-7.9-4.7-4.5-1.8-10-4.7-12.4-6.3-2.9-2-4.4-2.6-4.6-1.8zM292.5 21.1c.4 4.6.8 9.5 1 10.9.2 1.4.6 5.9 1 10 .3 4.1.8 9.3 1.1 11.5.3 2.2.7 5.6.9 7.5.2 1.9.7 7.1 1 11.4l.6 8-4.4-4.1c-8.4-7.7-15.6-7.5-20.8.7-1.3 2.1-1.4 3.4-.5 8.1 1.4 6.6 3.3 9.8 7.9 13.3 4.8 3.7 11.3 4.4 16.3 1.8 6.7-3.5 7.5-5.8 6.9-22.3-.2-7.9-.7-15.5-.9-16.9-.3-1.4-.8-5.2-1.1-8.5-.3-3.3-.8-7.7-1.1-9.8-.3-2-.3-3.7.1-3.7 1.5 0 9.4 6.1 12.5 9.6 4.7 5.5 7.1 11.5 7.2 18.2v5.7l2.4-3c6.3-7.7 4.8-19-4.3-32.5-4.3-6.2-13.8-15.6-20.8-20.6-6-4.1-5.8-4.4-5 4.7zM80.8 24.8c-6.3 4.3-10 12.8-11.2 25.2-.2 1.9-.6 5.3-.9 7.5-.4 2.2-.9 6.5-1.2 9.5-.6 6.7-.8 7.4-3.4 17.6-1.8 6.8-2.1 9.9-1.6 19 .9 17.9 2.2 35.7 3 42.4.5 4.6 1.3 12.2 2 19 .3 3 .8 6.6 1 8 .2 1.4.7 4.3 1 6.5.2 2.2 1 7.4 1.6 11.5.6 4.1 1.2 8.4 1.4 9.5 1.6 11.2 4 22.2 6.1 28.4 5.6 16.7 17.5 37.4 36.2 63.1 9.5 13 22.3 31 25.7 36 4.7 7 16.2 18.2 24.5 23.7 7.7 5.2 14.4 8.8 48.4 26.2 10.9 5.7 21.6 11.3 23.7 12.7 2.1 1.3 4.1 2.4 4.4 2.4.9 0 20.9 12.6 28.6 18 27.6 19.6 33.4 26.5 50.2 60.5 5.5 11 10.8 21.3 11.9 22.8l2 2.8 5.4-7.9c6.7-9.8 18.2-22 31.1-33.2 5.4-4.6 12-10.9 14.7-14 18.1-20.5 16.2-48.2-7.6-107.9-8.6-21.6-12.3-28.4-19.9-36.1-5.9-6-24.7-21-26.3-21-1.5 0-9.1-6.3-8.8-7.3.2-.6 1.6-2.7 3.1-4.6 5.4-6.9 14.1-24.8 15.6-32.1.2-.8.8-3.5 1.4-6 2.4-9.8 3.1-23.7 1.8-35-.9-7.8-3.6-19.1-4.9-20.5-.6-.6-.7-.1-.4 1.5 1.3 5.1 1.3 9 .2 9.9-2.7 2.2-11.6-6.3-11.6-11.1 0-.9-1.5-2.5-3.3-3.6-3.5-2-8.1-10.1-9.1-16-.3-1.9-1.5-4.6-2.6-6.1-1-1.6-2.3-4.7-2.9-7-.5-2.3-1.6-5-2.5-6-1.8-2-2.2-6.1-.6-6.1.6 0 1.3.7 1.7 1.6.5 1.3.7 1.3 1.4.2 1.3-2 1.3-2-6.3-7.9-6.8-5.1-7.5-5.4-9.8-4.3-1.9 1-2.1 1.4-.9 1.9.9.3 2 .5 2.5.4 1.9-.3 3.4.2 3.4 1.2 0 .5-.4.8-.8.5-.4-.2-1.4-.1-2.2.5-1 .5-1.1.9-.3.9.7 0 1 .6.7 1.3-.2.7.7 1.9 2 2.7 4.7 2.5 9.2 10.9 6.7 12.4-1.3.8-11-8.4-10.5-9.9.5-1.1-3.4-4.3-4.3-3.7-1.2.8-2.6-.3-3.4-2.7-.6-1.7-2.4-3.6-4.2-4.5-1.8-.9-4.3-3.1-5.7-5-1.7-2.4-4-4-7.5-5.1-2.7-1-6-2.8-7.3-4.1-3.7-3.6-8.8-4.2-13.5-1.5-2.2 1.3-3.7 1.8-3.3 1.3.4-.7-.6-1-2.5-1-1.7.1-3.4-.4-3.8-1.1-1.2-1.8-10-1.1-11.1.9-1.8 3.3-6.9 2.9-6.5-.5 2.1-16 1.6-19.2-4.2-25-7.9-7.9-16.7-9.5-22.2-4.1-2.5 2.6-2.6 2.7-2.3 16.8.2 11-.1 15.7-1.4 20.6-2.3 8.6-3.8 9.4-16.2 9.6-8.1.1-10.6.6-15.2 2.7-3 1.4-7 4.1-8.9 6-6.9 6.9-9.7 18.5-6.7 27.6 2.4 7.2.1 11.9-2.4 5-2-5.2-2.1-17.9-.3-23.4 2.2-6.6 4.2-9.1 10.6-13.8 4.7-3.4 5.7-4.6 6.3-8 1.2-6.7 2-14.2 2.9-26.2.3-4.6.8-9.3 1.1-10.5.8-3.9.7-16.1-.1-19.8-1.7-8-7-15-13.4-17.8-4.8-2.2-7.4-2.1-12.4.3-5.4 2.5-6.9 5.5-7.3 14.9-.3 7.4-.7 8.9-5.2 17.6-4.5 8.6-6.1 12.7-6.7 17-.7 4.7-1.6 17.6-1.7 24.5-.1 7.9 1.1 28.5 1.7 29.5.2.3.7 3.3 1 6.5.4 3.3.9 6.3 1.1 6.6.2.3.6 2.1.9 3.9.3 1.9 1.5 6.6 2.5 10.5 4.9 18.3 7.3 25.5 10.5 32.1 1.9 4 3.5 8.5 3.5 10v2.9l-2-2.5c-8.5-11-14.2-25.9-17.6-45.5-.4-2.2-.8-4.9-1-6-.3-1.1-.9-5.4-1.5-9.5-.5-4.1-1.2-8.6-1.4-10-1.8-11.8-2.2-25.6-1.7-61.5.2-7.7.1-15.1-.2-16.5-.2-1.4-.7-4.7-1.1-7.3-1.7-13.4-8.6-25.6-17.9-31.4-5.9-3.8-9-4.4-11.8-2.5zM234.5 109c.3.5-.1 1-.9 1-.9 0-1.9 0-2.3.1-.4 0-.9-.4-1.1-1-.5-1.4 3.5-1.4 4.3-.1zm37.5 1.3c1.4.4 3.1 1.6 3.9 2.8l1.3 2.2-3.6-2.1c-2.9-1.7-3.6-1.8-3.6-.7 0 2-1.6 1.9-2.4-.1-1.1-2.8-.7-4.7.7-3.7.6.6 2.3 1.3 3.7 1.6zm-36.6 5.3c1.1.2 2.4.8 3 1.4.5.5 1.8 1 2.7 1 1.6 0 3.2 2.2 3.2 4.5.1 2.1-2.4 9.4-3.4 10-.5.4-3.3-1-6.1-3-2.9-2.1-6.8-4-9-4.2-2.1-.3-3.8-.8-3.9-1.2-.7-5.2-.4-6.8 1.5-8.4 2-1.7 3.6-1.7 12-.1zm42.7 3.1c1.9.3 4.1 1.4 4.7 2.4 1.5 2.3 1 2.4-2.7.4-1.6-.8-3.1-1.2-3.3-1-.3.3-1.9 0-3.6-.6-3.6-1.2-4.5-3.5-.9-2.5 1.2.4 3.8 1 5.8 1.3zm-69.8 13.2c1.5 1.4 2.7 3.2 2.7 3.8 0 .7.9 1.3 1.9 1.3 1.3 0 2.8 1.6 4.5 4.6 1.4 2.6 2.6 4.9 2.6 5.3 0 .5-3.6-3.2-11-11.6-1.5-1.7-3.7-3.6-4.9-4.2-1.1-.7-2.1-1.6-2.1-2.1 0-1.4 3.2.1 6.3 2.9zm21 2.8c2.7.5 3.8 2.3 1.5 2.3-.8.1-.6.6.5 1.4 3.3 2.5 1.1 6.7-2.4 4.5-.8-.5-2.5-.9-3.8-.9-1.8 0-2.1-.3-1.2-1.3.8-1 .7-1.7-.1-2.5-.6-.6-1.3-2.1-1.5-3.3-.3-1.8 0-2 1.9-1.4 1.3.4 3.5.9 5.1 1.2zm3.2 11.5c1.1.1 2.8-.2 3.7-.6 1.4-.6 1.6-.4 1.2 1.6-.2 1.2-.7 5.5-1 9.3-.6 6.7-.5 7.4 3 14.4 2.1 4 3.4 7.6 3 8-.4.3-.9.1-1.1-.6-.2-.7-2.9-5.2-6-10-3-4.8-6-9.7-6.6-10.8-.5-1.1-1.4-2.7-1.9-3.5-3.6-6.5-3.3-9.6 1-8.5 1.5.4 3.6.7 4.7.7zm-45 67.8c5.2 6.8 5.8 8.9 1.7 6.5-1.8-1.1-3.8-3.9-5.4-7.6-3.1-7-2.4-6.8 3.7 1.1zm86.9-3.4c1.9.7 1.1 2.4-1.2 2.4-.9 0-2.8.9-4.2 2-1.7 1.3-2.8 1.6-3.7.8-.9-.7-.2-1.6 3-3.3 2.3-1.3 4.3-2.4 4.4-2.4.1-.1.8.2 1.7.5zm11 15.7c2.7 1.7 8.1 2 12.5.7 3.8-1.1 6.4.1 5.4 2.6-.6 1.7 1.9 2.8 5 2 1.3-.3 4.1-1.9 6.2-3.6 4.1-3.3 8.7-3.9 11.8-1.6 2.2 1.7 2.2 3.8-.4 8.8-2.8 5.4-3.1 7.8-1.5 10.3 2.2 3.3.9 6.7-5 13l-5.3 5.9-2.3-2c-1.2-1-3.8-3.3-5.7-4.9-1.9-1.7-10-9.3-17.9-17l-14.4-14 2.9-1.1c3.1-1.3 5.6-1.1 8.7.9zM373.5 29.6c-7.7 1.8-15.6 3.4-17.7 3.6-2.1.1-3.8.5-3.8.9 0 3.5 16.4 4.9 26.4 2.3 3.2-.8 5.9-1.4 6.1-1.2.1.2.5 1.3.9 2.5 1.1 3.5-7.1 5.8-21.6 5.8-9.5 0-11.4.2-10.5 1.3 4 4.9 17.5 6.5 28.3 3.4l7.2-2 .7 5.7c.4 3.1.8 6.5 1 7.6 1.3 8.1 2.7 19.7 2.3 20-.2.2-2.3-.1-4.7-.6-6.3-1.4-12.7-.2-16.6 3.2-4.3 3.8-4.8 6.1-2.1 9.8 3.2 4.6 7.9 6.5 16.3 6.6 5.7 0 7.7-.4 10-2.1 4.2-3.1 6.7-8.9 7.1-16.9.3-6-.3-11.1-3.4-28.5-.3-1.4-1.7-7.5-3.2-13.5-2.8-10.8-2.9-11-5.8-11.1-1.6-.1-9.2 1.4-16.9 3.2zM355 97c-1.4 1.1-5.4 3.2-9 4.7-3.6 1.4-6.9 3-7.3 3.4-.8.6.7 10.9 3.2 21.9 1 4.6.5 5.9-2.3 5.4-2.7-.4-7.6 2.9-7.6 5.2 0 2.3 4.7 6.4 7.2 6.4 1.3 0 3.2-.7 4.3-1.6 3-2.2 2.9-11 0-25-.7-3.1-.6-3.2 4.6-4.9 3-1 6.4-2.4 7.6-3.2 2-1.3 2.2-1.2 2.7 1.4 1.8 8 3.1 13.2 4.1 15.5.6 1.4.2 1.8-1.7 1.8-3 0-6.8 3.8-6.8 6.7 0 5.4 7.4 6.8 11.3 2.2 2.1-2.6 2.1-5 .2-11.5-.8-2.7-2.1-8.3-3-12.4-.8-4.1-2.3-9.8-3.3-12.7l-1.7-5.2L355 97z"/><path d="M283.4 109.4c1.1.9 2.4 1.6 3 1.6 1.2 0 .7-.5-2.4-1.9-2.4-1.1-2.4-1.1-.6.3zM392 137.4c0 .5-1.6 7.6-3.6 16-1.9 8.3-3.7 15.8-3.9 16.6-.2.8-1.5 6.6-3 12.8l-2.8 11.3-2.4-4.2c-4.6-8.2-9.3-10.4-15.2-7.1-8.2 4.7-6.9 19.6 2.2 25.3 3.9 2.5 11.7 2.1 14.7-.6 1.1-1 3.2-5.5 4.6-9.9 3.1-9.7 8.4-31.2 8.4-34.4 0-3 1.2-2.8 3.7.6 5 6.7 6.7 11.5 6.7 18.8 0 4.6-.4 7.7-1.3 8.8-1.1 1.4-1.1 1.6.3 1.6 2.2 0 5.5-3.5 7.6-8.2 2.9-6.6.9-18.8-5.1-31.4-2.8-5.9-10.9-17.7-10.9-16zM338 167.9c0 .6.4 1.3 1 1.6.6.3.7-.1.4-.9-.7-1.8-1.4-2.1-1.4-.7z"/></svg>